<?xml version="1.0" encoding="iso-8859-1"?>
<!-- Generator: Adobe Illustrator 18.0.0, SVG Export Plug-In . SVG Version: 6.00 Build 0)  -->
<!DOCTYPE svg PUBLIC "-//W3C//DTD SVG 1.1//EN" "http://www.w3.org/Graphics/SVG/1.1/DTD/svg11.dtd">
<svg version="1.1" id="_x30_" xmlns="http://www.w3.org/2000/svg" xmlns:xlink="http://www.w3.org/1999/xlink" x="0px" y="0px"
	 viewBox="0 0 512 512" style="enable-background:new 0 0 512 512;" xml:space="preserve">
<g>
	<rect style="opacity:0;fill:#FFFFFF;" width="512" height="512"/>
	<path style="opacity:0.1;fill:#040000;" d="M512,261.325V512H228.966l-92.928-92.877l-43.622-43.674
		c-2.611-4.659-4.813-9.574-6.605-14.797c-23.245-68.045-1.741-132.557,19.712-189.85C127.027,113.408,178.995,66.918,256,66.918
		c32.563,0,60.621,8.294,83.814,22.272l52.378,52.327L512,261.325z"/>
	<g>
		<g>
			<path style="fill:#EA5553;" d="M427.895,355.971c-23.296,68.045-116.429,89.549-170.189,89.549
				c-33.485,0-82.33-8.346-119.962-31.078c-18.125-11.008-33.69-25.344-43.623-43.674c-2.611-4.659-4.813-9.574-6.605-14.797
				c-23.245-68.045-1.741-132.557,19.712-189.85c21.504-57.395,73.472-103.885,150.477-103.885c32.563,0,60.621,8.294,83.814,22.272
				c21.965,13.107,39.526,31.334,52.378,52.326c5.683,9.267,10.445,19.098,14.285,29.286
				C429.688,223.415,451.14,287.927,427.895,355.971z"/>
			<path style="fill:#FCE4C1;" d="M356.222,147.303c-3.342-5.572-10.27-12.819-20.599-15.225
				c-22.879-5.331-58.17-3.583-77.918-3.583c-19.744,0-55.038-1.748-77.918,3.583c-10.325,2.405-17.257,9.652-20.599,15.225
				c-10.744,17.909-34.665,90.601-29.555,111.052c3.583,14.331,11.867,23.622,21.523,27.236c28.968,10.83,78.338,6.8,106.548,6.8
				s77.584,4.03,106.548-6.8c9.656-3.614,17.941-12.905,21.524-27.236C390.887,237.904,366.97,165.212,356.222,147.303z"/>
			<g>
				<path style="fill:#F5E48F;" d="M164.509,340.754c0-8.957,6.8-19.705,19.553-19.705c12.745,0,16.149,11.642,16.149,18.807
					c0,7.165-3.404,39.406,2.549,57.319c5.949,17.914-11.898,19.705-18.698,8.957C177.258,395.384,164.509,373.892,164.509,340.754z
					"/>
				<path style="fill:#F5E48F;" d="M111.06,344.83c-1.177-7.865,2.502-18.147,12.054-19.728c9.543-1.59,13.616,8.214,14.556,14.506
					c0.944,6.295,2.627,35.03,9.435,50.022c6.804,14.991-6.326,18.784-12.827,10.192C127.772,391.226,115.404,373.93,111.06,344.83z
					"/>
				<path style="fill:#F5E48F;" d="M353.296,340.754c0-8.957-6.8-19.705-19.549-19.705c-12.749,0-16.149,11.642-16.149,18.807
					c0,7.165,3.4,39.406-2.553,57.319c-5.949,17.914,11.898,19.705,18.702,8.957C340.547,395.384,353.296,373.892,353.296,340.754z"
					/>
				<path style="fill:#F5E48F;" d="M404.359,344.83c1.174-7.865-2.506-18.147-12.057-19.728c-9.544-1.59-13.616,8.214-14.556,14.506
					c-0.941,6.295-2.623,35.03-9.431,50.022c-6.804,14.991,6.322,18.784,12.823,10.192
					C387.643,391.226,400.011,373.93,404.359,344.83z"/>
			</g>
			<g>
				<path style="fill:#D2171A;" d="M296.35,263.173l-26.218-11.121c-1.395-0.591-2.972-0.567-4.348,0.066l-8.079,3.726l-8.079-3.726
					c-1.372-0.633-2.949-0.657-4.348-0.066l-26.218,11.121c-2.732,1.158-4.006,4.313-2.848,7.045
					c1.158,2.736,4.317,4.006,7.049,2.848l24.026-10.188l8.168,3.765c1.43,0.66,3.073,0.66,4.499,0l8.168-3.765l24.03,10.188
					c2.732,1.158,5.887-0.113,7.045-2.848C300.356,267.487,299.081,264.331,296.35,263.173z"/>
			</g>
			<g>
				<g>
					<g>
						<path style="fill:#EFCFA4;" d="M199.267,247.611c-23.704,0-42.988-19.285-42.988-42.989c0-23.707,19.285-42.992,42.988-42.992
							c23.707,0,42.989,19.285,42.989,42.992C242.256,228.326,222.974,247.611,199.267,247.611z"/>
						<circle style="fill:#FFFFFF;" cx="199.269" cy="204.622" r="32.242"/>
						<path style="fill:#40220F;" d="M199.267,221.211c-9.151,0-16.589-7.438-16.589-16.589c0-9.155,7.438-16.592,16.589-16.592
							c9.155,0,16.592,7.438,16.592,16.592C215.859,213.773,208.422,221.211,199.267,221.211z"/>
						<path style="fill:#40220F;" d="M141.054,227.012c-5.374,20.599-5.374,42.988,12.54,51.048c17.909,8.059,36.717,0,40.299-4.477
							l-10.744-5.374l4.476-8.063h-12.539v-10.744C175.086,249.402,149.113,255.67,141.054,227.012z"/>
						<path style="fill:#40220F;" d="M252.11,157.154c0-4.698-3.812-8.51-8.51-8.51c-3.952,0-7.243,2.708-8.199,6.365
							c-2.094,0.964-4.476,1.446-7.472,0.354c-9.854-3.583-35.827-21.497-55.528-16.122c-27.651,7.542-34.203,30.577-27.527,47.139
							c0.583,3.276,2.358,6.101,4.853,8.098c1.387,1.43,3.198,2.281,5.226,2.58c1.002,0.237,2.04,0.4,3.116,0.4
							c5.895,0,10.849-3.82,12.66-9.105c0.843-2.064,1.111-4.399,0.509-6.963c-0.381-1.919-1.193-3.676-2.3-5.207
							c-0.046-0.078-0.07-0.148-0.12-0.222c-6.225-9.338,11.642-17.91,28.658-13.433c17.02,4.476,39.468,8.436,48.363,3.583
							c3.769-2.059,5.432-4.239,5.809-6.306C251.924,158.96,252.11,158.082,252.11,157.154z"/>
					</g>
					<g>
						<path style="fill:#D2171A;" d="M233.14,220.791c-2.332,1.465-4.302,3.412-5.774,5.731c-1.461,2.316-2.436,5.059-2.444,8.071
							c-0.012,2.6,0.809,5.374,2.495,7.705c1.682,2.343,4.111,4.212,7.084,5.584c2.701,1.24,5.891,0.066,7.134-2.626
							c1.243-2.697,0.066-5.891-2.626-7.135c-1.667-0.77-2.467-1.543-2.856-2.087c-0.381-0.552-0.466-0.913-0.482-1.442
							c-0.007-0.591,0.222-1.442,0.789-2.335c0.551-0.89,1.426-1.764,2.378-2.351c2.514-1.574,3.279-4.892,1.706-7.406
							C238.972,219.987,235.658,219.221,233.14,220.791z"/>
					</g>
				</g>
				<g>
					<g>
						<path style="fill:#EFCFA4;" d="M316.144,247.611c23.707,0,42.988-19.285,42.988-42.989c0-23.707-19.281-42.992-42.988-42.992
							c-23.703,0-42.989,19.285-42.989,42.992C273.155,228.326,292.441,247.611,316.144,247.611z"/>
						<circle style="fill:#FFFFFF;" cx="316.144" cy="204.622" r="32.24"/>
						<path style="fill:#40220F;" d="M316.144,221.211c9.151,0,16.589-7.438,16.589-16.589c0-9.155-7.438-16.592-16.589-16.592
							s-16.588,7.438-16.588,16.592C299.556,213.773,306.993,221.211,316.144,221.211z"/>
						<path style="fill:#40220F;" d="M374.357,227.012c5.374,20.599,5.374,42.988-12.536,51.048
							c-17.913,8.059-36.721,0-40.303-4.477l10.748-5.374l-4.48-8.063h12.54v-10.744
							C340.326,249.402,366.298,255.67,374.357,227.012z"/>
						<path style="fill:#40220F;" d="M263.305,157.154c0-4.698,3.808-8.51,8.506-8.51c3.956,0,7.247,2.708,8.203,6.365
							c2.091,0.964,4.473,1.446,7.473,0.354c9.851-3.583,35.823-21.497,55.528-16.122c27.651,7.542,34.199,30.577,27.523,47.139
							c-0.579,3.276-2.358,6.101-4.849,8.098c-1.391,1.43-3.198,2.281-5.23,2.58c-1.002,0.237-2.036,0.4-3.116,0.4
							c-5.895,0-10.849-3.82-12.656-9.105c-0.843-2.064-1.111-4.399-0.513-6.963c0.384-1.919,1.197-3.676,2.304-5.207
							c0.047-0.078,0.07-0.148,0.12-0.222c6.221-9.338-11.646-17.91-28.661-13.433c-17.016,4.476-39.464,8.436-48.363,3.583
							c-3.769-2.059-5.428-4.239-5.805-6.306C263.488,158.96,263.305,158.082,263.305,157.154z"/>
					</g>
					<g>
						<path style="fill:#D2171A;" d="M282.271,220.791c2.335,1.465,4.306,3.412,5.778,5.731c1.457,2.316,2.432,5.059,2.44,8.071
							c0.016,2.6-0.809,5.374-2.495,7.705c-1.682,2.343-4.111,4.212-7.084,5.584c-2.697,1.24-5.887,0.066-7.134-2.626
							c-1.24-2.697-0.066-5.891,2.627-7.135c1.667-0.77,2.467-1.543,2.856-2.087c0.381-0.552,0.47-0.913,0.482-1.442
							c0.008-0.591-0.218-1.442-0.785-2.335c-0.556-0.89-1.43-1.764-2.378-2.351c-2.518-1.574-3.284-4.892-1.71-7.406
							C276.439,219.987,279.758,219.221,282.271,220.791z"/>
					</g>
				</g>
			</g>
		</g>
		<path style="opacity:0.18;fill:#3E0109;" d="M427.895,355.971c-23.296,68.045-116.429,89.549-170.189,89.549V62.237
			c32.563,0,60.621,8.294,83.814,22.272c21.965,13.107,39.526,31.334,52.378,52.326c5.683,9.267,10.445,19.098,14.285,29.286
			C429.688,223.415,451.14,287.927,427.895,355.971z"/>
	</g>
</g>
</svg>
