<?xml version="1.0" encoding="iso-8859-1"?>
<!-- Generator: Adobe Illustrator 18.0.0, SVG Export Plug-In . SVG Version: 6.00 Build 0)  -->
<!DOCTYPE svg PUBLIC "-//W3C//DTD SVG 1.1//EN" "http://www.w3.org/Graphics/SVG/1.1/DTD/svg11.dtd">
<svg version="1.1" id="_x30_" xmlns="http://www.w3.org/2000/svg" xmlns:xlink="http://www.w3.org/1999/xlink" x="0px" y="0px"
	 viewBox="0 0 512 512" style="enable-background:new 0 0 512 512;" xml:space="preserve">
<g>
	<rect style="opacity:0;fill:#FFFFFF;" width="512" height="512"/>
	<path style="opacity:0.1;fill:#231815;" d="M501.197,212.787L383.181,94.72l-26.675-26.624c-1.997-1.229-4.096-2.304-6.246-3.277
		c-5.939-2.714-9.267,3.328-5.786,9.524c8.448,15.052,15.309,42.905,2.816,62.054c-3.635,5.581-7.987,9.933-12.544,13.313h-0.051
		l-6.502-4.557h-91.495l-37.376-37.376l-32.359-32.41l-2.765-2.765l-45.312,45.313c-2.97,11.11-3.738,22.732-1.894,33.791
		c1.538,9.364,5.206,18.939,10.326,28.075l-16.895,16.895l-45.04,31.626c0,0,6.312,6.312,16.253,12.567l110.407,110.356
		c-14.379,4.337-24.824,17.663-24.824,33.441c0,15.167,9.711,28.074,23.263,32.882L284.979,512h67.84H512V291.43v-67.84
		L501.197,212.787z"/>
	<g>
		<g>
			<path style="fill:#B38E7E;" d="M213.299,162.611l-4.557,68.352c-30.976,3.277-62.362-19.456-79.411-47.565
				c-0.717-1.178-1.434-2.355-2.099-3.533c-5.12-9.164-8.704-18.79-10.24-28.16c-1.843-11.059-1.075-22.681,1.894-33.791
				c6.042-22.682,21.299-43.316,42.854-53.095c5.939-2.714,9.267,3.328,5.786,9.524c-0.205,0.358-0.359,0.665-0.564,1.024
				c-8.192,15.257-14.489,42.291-2.253,61.03c0.819,1.229,1.639,2.407,2.509,3.482c3.072,3.943,6.502,7.168,10.086,9.831
				C190.976,159.898,206.797,161.638,213.299,162.611z"/>
			<path style="fill:#B38E7E;" d="M395.008,151.705c-1.792,10.599-6.093,21.504-12.339,31.693
				c-9.523,15.667-23.501,29.696-39.373,38.4c-12.544,6.963-26.316,10.598-40.038,9.165l-4.557-68.352
				c4.966-0.717,15.513-1.946,26.368-7.117c3.226-1.536,6.503-3.379,9.626-5.786h0.051c4.557-3.379,8.909-7.731,12.544-13.313
				c12.493-19.149,5.632-47.001-2.816-62.054c-3.482-6.196-0.154-12.237,5.786-9.524c2.15,0.973,4.249,2.048,6.246,3.277
				c11.008,6.4,20.019,15.769,26.675,26.624C393.626,111.769,398.182,132.556,395.008,151.705z"/>
		</g>
		<path style="fill:#FBEFD9;" d="M446.617,228.301c0,0-44.953,44.902-83.814,13.876v0.614c-0.051,7.936-1.382,16.282-4.045,24.423
			c-4.659,14.439-13.568,28.109-27.238,37.581l-11.673,46.387c14.438,4.301,24.934,17.664,24.934,33.484
			c0,19.251-15.616,34.919-34.918,34.919H202.137c-19.302,0-34.918-15.667-34.918-34.919c0-15.769,10.445-29.133,24.832-33.433
			c0.051-0.051,0.051-0.051,0.102-0.051l-6.042-24.116l-5.632-22.271c-21.606-14.951-31.283-40.449-31.283-62.617
			c-24.32,19.404-50.995,9.113-67.584-1.331c-9.933-6.247-16.23-12.544-16.23-12.544l45.056-31.642l18.893-13.261l47.974-33.689
			l6.502-4.557h144.384l6.502,4.557h0.051l47.923,33.689L446.617,228.301z"/>
		<path style="fill:#413D3C;" d="M252.672,145.152v156.058c0,14.285-11.571,25.856-25.908,25.856h-40.652l-5.632-22.271
			c-21.606-14.951-31.283-40.449-31.283-62.617c-24.32,19.404-50.995,9.113-67.584-1.331c-9.933-6.247-16.23-12.544-16.23-12.544
			l45.056-31.642l18.893-13.261l47.974-33.689l6.502-4.557H252.672z"/>
		<path style="fill:#413D3C;" d="M344.781,384.665c0,19.251-15.616,34.919-34.918,34.919H202.137
			c-19.302,0-34.918-15.667-34.918-34.919c0-15.82,10.496-29.184,24.934-33.484h127.693
			C334.285,355.481,344.781,368.845,344.781,384.665z"/>
		<g>
			<g>
				<path style="fill:#564236;" d="M324.136,250.199h17.851l-5.772,7.83c0.744,1.663,1.174,3.48,1.174,5.404
					c0,7.318-5.923,13.26-13.252,13.26c-7.308,0-13.238-5.942-13.238-13.26C310.899,256.129,316.829,250.199,324.136,250.199z"/>
			</g>
			<g>
				<path style="fill:#838384;" d="M201.093,263.432c0,7.318-5.923,13.26-13.238,13.26c-7.322,0-13.252-5.942-13.252-13.26
					c0-1.923,0.436-3.741,1.181-5.404l-5.78-7.83h17.851C195.171,250.199,201.093,256.129,201.093,263.432z"/>
			</g>
		</g>
		<path style="fill:#838384;" d="M298.444,387.969c0,8.27-6.705,14.969-14.976,14.969c-8.263,0-14.961-6.698-14.961-14.969
			c0-8.267,6.698-14.968,14.961-14.968C291.739,373,298.444,379.702,298.444,387.969z"/>
		<path style="fill:#838384;" d="M243.485,387.969c0,8.27-6.698,14.969-14.969,14.969c-8.271,0-14.969-6.698-14.969-14.969
			c0-8.267,6.698-14.968,14.969-14.968C236.787,373,243.485,379.702,243.485,387.969z"/>
		<path style="fill:#564236;" d="M446.617,228.301c0,0-44.953,44.902-83.814,13.876v0.614c-7.987-6.4-14.438-13.465-19.507-20.992
			c-14.592-21.197-18.841-45.619-18.227-66.304c0.102-3.533,0.358-7.014,0.717-10.342h2.407l6.502,4.557l47.974,33.689
			L446.617,228.301z"/>
		<path style="fill:#E8E9E9;" d="M290.202,413.337c0,2.15-0.205,4.199-0.614,6.246c-2.867,16.077-16.947,28.262-33.843,28.262
			c-16.947,0-31.027-12.186-33.894-28.262c-0.41-2.048-0.614-4.096-0.614-6.246c0-3.994,0.666-7.834,1.946-11.366
			c3.174-9.114,10.035-16.486,18.842-20.326c0.461,0.973,0.819,1.996,1.075,3.02c0.103,0.41,0.205,0.82,0.205,1.229
			c0.153,0.666,0.205,1.382,0.205,2.099c0,0.511-0.051,1.024-0.102,1.536c-0.051,0.871-0.256,1.689-0.461,2.509
			c-0.666,2.099-1.792,4.045-3.174,5.683c-0.256,0.256-0.512,0.513-0.666,0.819c-0.154,0.051-0.205,0.103-0.205,0.204
			c-3.431,3.891-5.53,9.011-5.53,14.592c0,2.15,0.307,4.249,0.922,6.246c1.024,3.635,3.021,6.913,5.632,9.523
			c4.045,4.045,9.626,6.554,15.821,6.554c6.144,0,11.725-2.509,15.77-6.554c2.611-2.611,4.608-5.888,5.632-9.523
			c0.614-1.997,0.922-4.096,0.922-6.246c0-5.683-1.638-10.753-5.069-14.694c0-0.051-0.102-0.103-0.102-0.103
			c-0.153-0.256-0.358-0.461-0.563-0.666c-1.177-1.331-2.15-2.867-2.816-4.506c-0.307-0.768-0.512-1.536-0.717-2.355
			c-0.103-0.461-0.153-0.973-0.205-1.485c-0.051-0.512-0.103-1.024-0.103-1.536c0-1.127,0.103-2.151,0.358-3.175
			c0.256-1.024,0.563-1.996,1.024-2.918c8.602,3.891,15.36,11.162,18.432,20.224C289.536,405.606,290.202,409.395,290.202,413.337z"
			/>
	</g>
</g>
</svg>
