<?xml version="1.0" encoding="iso-8859-1"?>
<!-- Generator: Adobe Illustrator 18.0.0, SVG Export Plug-In . SVG Version: 6.00 Build 0)  -->
<!DOCTYPE svg PUBLIC "-//W3C//DTD SVG 1.1//EN" "http://www.w3.org/Graphics/SVG/1.1/DTD/svg11.dtd">
<svg version="1.1" id="_x30_" xmlns="http://www.w3.org/2000/svg" xmlns:xlink="http://www.w3.org/1999/xlink" x="0px" y="0px"
	 viewBox="0 0 512 512" style="enable-background:new 0 0 512 512;" xml:space="preserve">
<g>
	<rect y="-1" style="opacity:0;fill:#FFFFFF;" width="510" height="510"/>
	<path style="opacity:0.1;fill:#040000;" d="M512,252.972v256.476H248.635l-74.555-74.555c5.715-8.93,16.585-15.717,16.585-15.717
		v-23.831c-11.635-5.001-19.392-15.258-21.586-26.893c-11.737,2.398-24.443-0.969-33.527-10.053
		c-9.134-9.083-12.451-21.79-10.053-33.527c-11.788-2.245-22.249-10.206-27.199-22.096c-4.95-11.89-3.164-24.903,3.572-34.854
		c-10.002-6.583-16.636-17.912-16.636-30.822c0-12.86,6.583-24.188,16.585-30.822c-6.736-9.9-8.522-22.912-3.572-34.853
		c4.899-11.89,15.36-19.851,27.148-22.096c-2.449-11.635,0.868-24.239,9.747-33.323c-0.459-6.991,2.041-11.635,7.756-11.226
		c2.654,0.204,5.715,0.663,9.032,1.429c5.562-1.48,11.38-1.633,16.993-0.51c2.245-11.788,10.155-22.249,22.096-27.199
		c11.89-4.95,24.903-3.164,34.854,3.521c6.583-10.002,17.912-16.585,30.771-16.636c12.859,0,24.239,6.583,30.822,16.585
		c9.951-6.736,22.964-8.522,34.854-3.623c11.941,4.95,19.901,15.36,22.147,27.148c3.368-0.663,6.787-0.918,10.155-0.663
		c0.613,0.051,1.225,0.102,1.837,0.204c0.408,0.051,0.867,0.102,1.276,0.204c0.612,0.051,1.225,0.204,1.837,0.306
		c0.816,0.153,1.633,0.357,2.449,0.612h0.051c0.867-0.204,1.735-0.357,2.551-0.561L512,252.972z"/>
	<g>
		<g>
			<g>
				<path style="fill:#595758;" d="M220.926,358.706c0,0,0,18.065,0,36.231v31.995c0,14.186-17.963,23.014-30.873,23.933
					c-1.786,0.153-3.47,0.102-5.001-0.051c-4.899-0.51-5.613-4.236-4.95-6.328c-7.706,2.092-10.563-2.807-6.328-9.134
					c0.102-0.153,0.204-0.306,0.307-0.459c5.715-8.93,16.585-15.717,16.585-15.717v-56.286L220.926,358.706z"/>
				<path style="fill:#595758;" d="M323.035,362.909v56.263c0,0,11.258,7.034,16.879,16.178c4.221,6.329,1.405,11.253-6.324,9.142
					c0.703,2.111-0.035,5.788-4.928,6.329c-12.658,1.405-35.866-7.737-35.866-23.913c0-16.176,0-68.218,0-68.218L323.035,362.909z"
					/>
			</g>
			<path style="fill:#FFFFFF;" d="M428.464,236.745v0.357c0,12.859-6.634,24.188-16.636,30.822c6.736,9.9,8.522,22.912,3.572,34.854
				c-4.95,11.89-15.411,19.851-27.148,22.096c2.348,11.737-0.97,24.392-10.104,33.527c-9.083,9.083-21.79,12.451-33.527,10.053
				c-0.306,1.48-0.663,2.909-1.123,4.338c-0.102,0.306-0.204,0.663-0.306,0.969c-0.255,0.766-0.561,1.48-0.867,2.194
				c-1.021,2.399-2.296,4.695-3.776,6.838c-0.459,0.612-0.918,1.225-1.378,1.786c-2.704,3.419-6.073,6.379-10.002,8.726
				c-0.664,0.357-1.327,0.714-1.99,1.021c-0.715,0.357-1.429,0.714-2.143,1.021c-0.153,0.102-0.357,0.204-0.51,0.255
				c-9.951,4.133-20.667,3.572-29.751-0.663c-0.867-0.408-1.735-0.867-2.602-1.378c-0.868-0.459-1.684-0.97-2.501-1.531
				c-6.583,10.002-17.962,16.585-30.822,16.585h-0.204c-12.757-0.051-24.035-6.634-30.618-16.585
				c-1.633,1.122-3.317,2.092-5.103,2.909c-9.032,4.236-19.749,4.797-29.751,0.663c-0.153-0.051-0.357-0.153-0.51-0.255
				c-11.635-5.001-19.392-15.258-21.586-26.893c-11.737,2.398-24.443-0.969-33.527-10.053c-9.134-9.083-12.451-21.79-10.053-33.527
				c-11.788-2.245-22.249-10.206-27.199-22.096c-4.95-11.89-3.164-24.903,3.572-34.854c-10.002-6.583-16.636-17.912-16.636-30.822
				c0-12.86,6.583-24.188,16.585-30.822c-6.736-9.9-8.522-22.912-3.572-34.853c4.899-11.89,15.36-19.851,27.148-22.096
				c-2.449-11.635,0.868-24.239,9.747-33.323l0.255-0.255c4.746-4.746,10.461-7.961,16.534-9.543
				c5.562-1.48,11.38-1.633,16.993-0.51c2.245-11.788,10.155-22.249,22.096-27.199c11.89-4.95,24.903-3.164,34.854,3.521
				c6.583-10.002,17.912-16.585,30.771-16.636c12.859,0,24.239,6.583,30.822,16.585c9.951-6.736,22.964-8.522,34.854-3.623
				c11.941,4.95,19.901,15.36,22.147,27.148c3.368-0.663,6.787-0.918,10.155-0.663c0.613,0.051,1.225,0.102,1.837,0.204
				c0.408,0.051,0.867,0.102,1.276,0.204c0.612,0.051,1.225,0.204,1.837,0.306c0.816,0.153,1.633,0.357,2.449,0.612h0.051
				c1.684,0.46,3.317,1.021,4.899,1.786c4.031,1.735,7.807,4.286,11.073,7.552c0.153,0.153,0.306,0.306,0.459,0.51l0.051,0.051
				c0.817,0.867,1.633,1.786,2.348,2.705c0.765,0.97,1.48,1.939,2.143,2.959c0.97,1.531,1.837,3.164,2.551,4.848l0.051,0.051
				c0.255,0.459,0.408,0.919,0.612,1.429c0.459,1.071,0.817,2.194,1.123,3.317c0.663,2.194,1.071,4.44,1.327,6.685
				c0.306,3.674,0.102,7.348-0.613,10.972c11.788,2.245,22.249,10.155,27.199,22.045c5.001,11.89,3.215,24.953-3.47,34.853
				C421.83,212.505,428.413,223.834,428.464,236.745z"/>
			<path style="fill:#595758;" d="M378.557,116.059c-0.102,0.969-0.204,1.99-0.408,3.062c-3.113,17.503-22.249,45.161-55.163,48.989
				c0,0,0,53.428,0,70.319c0,16.891-38.017,32.353-38.017,57.664c0,25.311-28.117,23.933-28.117,23.933s-0.051,0-0.204,0
				c-2.654,0.051-27.913,0.051-27.913-23.933c0-25.311-38.017-40.773-38.017-57.664c0-16.891,0-70.319,0-70.319
				c-34.955-4.031-54.347-35.006-55.571-52.102c-0.459-6.991,2.041-11.635,7.756-11.226c2.654,0.204,5.715,0.663,9.032,1.429
				c11.941,2.551,27.199,8.012,38.221,12.298c8.573,3.317,14.646,5.97,14.646,5.97h104.101c0,0,6.073-2.654,14.646-5.97
				c11.124-4.287,26.484-9.798,38.476-12.35h0.051c0.867-0.204,1.735-0.357,2.551-0.561c2.194-0.408,4.287-0.663,6.175-0.816
				c1.48-0.102,2.755,0.153,3.827,0.663c1.327,0.663,2.296,1.837,2.96,3.317c0,0-0.051,0,0,0.051
				C378.455,110.701,378.71,113.201,378.557,116.059z"/>
			<path style="fill:#FFFFFF;" d="M297.644,90.729c-9.394,0-17.621,4.973-22.196,12.431c-5.018-4.243-11.507-6.807-18.598-6.807
				c-7.092,0-13.58,2.564-18.598,6.807c-4.575-7.458-12.802-12.431-22.191-12.431c-14.372,0-26.023,11.646-26.023,26.018
				c0,14.375,11.651,26.023,26.023,26.023c5.576,0,10.729-1.759,14.97-4.744c4.719,9.483,14.507,15.997,25.819,15.997
				c11.312,0,21.1-6.513,25.824-15.997c4.231,2.985,9.394,4.744,14.97,4.744c14.372,0,26.023-11.649,26.023-26.023
				C323.667,102.375,312.016,90.729,297.644,90.729z"/>
		</g>
		<path style="opacity:0.15;fill:#231815;" d="M428.464,236.745v0.357c0,12.859-6.634,24.188-16.636,30.822
			c6.736,9.9,8.522,22.912,3.572,34.854c-4.95,11.89-15.411,19.851-27.148,22.096c2.348,11.737-0.97,24.392-10.104,33.527
			c-9.083,9.083-21.79,12.451-33.527,10.053c-0.306,1.48-0.663,2.909-1.123,4.338c-0.102,0.306-0.204,0.663-0.306,0.969
			c-0.255,0.766-0.561,1.48-0.867,2.194c-1.021,2.399-2.296,4.695-3.776,6.838c-0.459,0.612-0.867,1.225-1.378,1.786
			c-2.704,3.419-6.073,6.379-10.002,8.726c-0.664,0.357-1.327,0.714-1.99,1.021c-0.715,0.357-1.429,0.714-2.143,1.021v23.831
			c0,0,11.278,7.042,16.891,16.176c4.184,6.328,1.378,11.227-6.328,9.134c0.715,2.092-0.051,5.817-4.95,6.328
			c-12.655,1.429-35.874-7.706-35.874-23.882v-31.995c-0.867-0.408-1.735-0.867-2.602-1.378c-0.868-0.459-1.684-0.97-2.501-1.531
			c-6.583,10.002-17.962,16.585-30.822,16.585h-0.204V65.386c12.859,0,24.239,6.583,30.822,16.585
			c9.951-6.736,22.964-8.522,34.854-3.623c11.941,4.95,19.901,15.36,22.147,27.148c3.368-0.663,6.787-0.918,10.155-0.663
			c0.613,0.051,1.225,0.102,1.837,0.204c0.408,0.051,0.867,0.102,1.276,0.204c0.612,0.051,1.225,0.204,1.837,0.306
			c0.816,0.153,1.633,0.357,2.449,0.612h0.051c0.867-0.204,1.735-0.357,2.551-0.561c2.194-0.408,4.287-0.663,6.175-0.816
			c1.48-0.102,2.755,0.153,3.827,0.663c1.276,0.714,2.245,1.837,2.96,3.317c0,0-0.051,0,0,0.051
			c0.817,1.837,1.123,4.337,0.919,7.195l0.051,0.051c0.817,0.867,1.633,1.786,2.348,2.705c0.765,0.97,1.48,1.939,2.143,2.959
			c0.97,1.531,1.837,3.164,2.551,4.848l0.051,0.051c0.255,0.459,0.408,0.919,0.612,1.429c0.459,1.071,0.817,2.194,1.123,3.317
			c0.663,2.194,1.071,4.44,1.327,6.685c0.306,3.674,0.102,7.348-0.613,10.972c11.788,2.245,22.249,10.155,27.199,22.045
			c5.001,11.89,3.215,24.953-3.47,34.853C421.83,212.505,428.413,223.834,428.464,236.745z"/>
	</g>
</g>
</svg>
