<?xml version="1.0" encoding="iso-8859-1"?>
<!-- Generator: Adobe Illustrator 18.0.0, SVG Export Plug-In . SVG Version: 6.00 Build 0)  -->
<!DOCTYPE svg PUBLIC "-//W3C//DTD SVG 1.1//EN" "http://www.w3.org/Graphics/SVG/1.1/DTD/svg11.dtd">
<svg version="1.1" id="_x30_" xmlns="http://www.w3.org/2000/svg" xmlns:xlink="http://www.w3.org/1999/xlink" x="0px" y="0px"
	 viewBox="0 0 512 512" style="enable-background:new 0 0 512 512;" xml:space="preserve">
<g>
	<rect style="opacity:0;fill:#FFFFFF;" width="512" height="512"/>
	<polygon style="opacity:0.1;fill:#231815;" points="512,250.365 512,512 200.6,512 60.673,372.015 219.495,243.915 
		362.495,100.915 	"/>
	<g>
		<g>
			<path style="fill:#FFFFFF;" d="M256,66.685c-107.378,0-138.293,66.38-152.988,156.65C88.72,311.16,76.22,343.7,60.662,372.02
				l50.128-12.39l1.73,47.79l53.59-28.315l12.102,49.56l38.028-38.945L256,442.575V66.685z"/>
			<path style="fill:#F1F2F1;" d="M451.34,372l-50.12-12.35l-0.06,1.635l-1.68,46.135l-53.6-28.305l-12.12,49.55l-38-38.93
				l-3.03,4.025L256,442.555V66.67c114.23,0,138.31,66.395,152.98,156.69C423.28,311.18,435.76,343.695,451.34,372z"/>
		</g>
		<g>
			<g>
				<path style="fill:#F4E228;" d="M199.76,206.425c0,16.135-13.08,29.21-29.21,29.21c-16.132,0-29.207-13.075-29.207-29.21
					c0-16.13,13.075-29.205,29.207-29.205C186.68,177.22,199.76,190.294,199.76,206.425z"/>
				<path style="fill:#D6D7D7;" d="M170.55,240.31c-9.342,0-17.813-3.8-23.95-9.94c-6.137-6.125-10.113-11.86-12.45-24.34
					c-2.34-10.915,0.88-26.615,7.018-32.745c6.137-6.14,20.04-0.74,29.382-0.74c9.34,0,26.09,6.295,32.22,12.43
					c6.14,6.13,7.5,10.72,4.49,19.69c-2.34,9.36-6.62,19.58-12.76,25.705C188.37,236.51,179.89,240.31,170.55,240.31z"/>
				<path style="fill:#FFFFFF;" d="M156.315,180.94c-8.925,4.99-14.972,14.53-14.972,25.485c0,16.135,13.075,29.21,29.207,29.21
					c16.13,0,29.21-13.075,29.21-29.21c0-4.585-1.09-8.905-2.98-12.775L156.315,180.94z"/>
				<path style="fill:#595758;" d="M185.16,202.53c0,8.065-6.545,14.605-14.608,14.605c-8.07,0-14.605-6.54-14.605-14.605
					s6.535-14.605,14.605-14.605C178.615,187.925,185.16,194.465,185.16,202.53z"/>
				<polygon style="fill:#FFFFFF;" points="157.542,154.57 141.168,173.285 223.05,199.015 190.29,149.889 				"/>
				<polygon style="fill:#F1F2F1;" points="157.542,154.57 136.487,173.285 223.05,199.015 190.29,149.889 				"/>
			</g>
			<g>
				<path style="fill:#F4E228;" d="M309.5,206.425c0,16.135,13.08,29.21,29.21,29.21c16.13,0,29.2-13.075,29.2-29.21
					c0-16.13-13.07-29.205-29.2-29.205C322.58,177.22,309.5,190.294,309.5,206.425z"/>
				<path style="fill:#D6D7D7;" d="M338.71,240.31c9.34,0,17.81-3.8,23.95-9.94c6.13-6.125,10.11-11.86,12.45-24.34
					c2.33-10.915-0.89-26.615-7.02-32.745c-6.14-6.14-20.04-0.74-29.38-0.74c-9.35,0-26.09,6.295-32.23,12.43
					c-6.13,6.13-7.49,10.72-4.48,19.69c2.34,9.36,6.62,19.58,12.76,25.705C320.9,236.51,329.36,240.31,338.71,240.31z"/>
				<path style="fill:#FCF8D3;" d="M352.94,180.94c8.93,4.99,14.97,14.53,14.97,25.485c0,16.135-13.07,29.21-29.2,29.21
					c-16.13,0-29.21-13.075-29.21-29.21c0-4.585,1.09-8.905,2.97-12.775L352.94,180.94z"/>
				<path style="fill:#595758;" d="M324.1,202.53c0,8.065,6.54,14.605,14.6,14.605c8.07,0,14.61-6.54,14.61-14.605
					s-6.54-14.605-14.61-14.605C330.64,187.925,324.1,194.465,324.1,202.53z"/>
				<polygon style="fill:#FFFFFF;" points="351.71,154.57 368.09,173.285 286.21,199.015 318.96,149.889 				"/>
				<polygon style="fill:#FFFFFF;" points="357.56,151.445 378.61,173.285 286.21,199.015 318.96,149.889 				"/>
			</g>
		</g>
		<g>
			<path style="fill:#F7EC84;" d="M256,200.275c-35.23,0-57.78,56.835-63.42,64.955c-5.63,8.12-4.22,29.23,11.28,24.36
				c25.07-7.88,39.45,40.595,52.14,40.595V200.275z"/>
			<path style="fill:#E6CC39;" d="M256,200.275c35.23,0,57.77,56.835,63.41,64.955c5.63,8.12,4.22,29.23-11.27,24.36
				c-25.07-7.88-39.46,40.595-52.14,40.595V200.275z"/>
		</g>
	</g>
</g>
</svg>
