<?xml version="1.0" encoding="iso-8859-1"?>
<!-- Generator: Adobe Illustrator 18.0.0, SVG Export Plug-In . SVG Version: 6.00 Build 0)  -->
<!DOCTYPE svg PUBLIC "-//W3C//DTD SVG 1.1//EN" "http://www.w3.org/Graphics/SVG/1.1/DTD/svg11.dtd">
<svg version="1.1" id="_x30_" xmlns="http://www.w3.org/2000/svg" xmlns:xlink="http://www.w3.org/1999/xlink" x="0px" y="0px"
	 viewBox="0 0 512 512" style="enable-background:new 0 0 512 512;" xml:space="preserve">
<g>
	<rect style="opacity:0;fill:#FFFFFF;" width="512" height="512"/>
	<polygon style="opacity:0.1;fill:#231815;" points="512,334.695 512,512 225.125,512 99.84,386.715 164.197,390.3 117.555,343.705 
		107.52,307.405 115.712,283.135 198.76,366.235 218.575,344.015 110.745,236.185 177.92,169.01 245.045,101.89 370.635,227.48 
		407.04,229.735 	"/>
	<g>
		<g>
			<path style="fill:#FFFFFF;" d="M290.355,368.795c-1.74,11.88-0.82,29.745,17.305,44.695c19.1,15.67,44.955,12.545,50.38,11.01
				l-6.195,17.665c-5.425,1.535-34.095,4.555-55.245-8.195c-35.07-21.245-40.6-60.005-40.6-60.005s-5.58,38.76-40.65,60.005
				c-21.095,12.75-49.768,9.73-55.195,8.195L153.96,424.5c5.375,1.535,31.28,4.66,50.38-11.01
				c18.125-14.95,19.045-32.815,17.305-44.695c0,0-26.725,34.2-67.582,37.735c-30.415,2.66-50.227-15.875-54.222-19.815
				l5.325-18.485c3.943,3.945,24.577,21.505,48.898,17.155c23.908-4.25,34.148-22.225,38.298-34.1
				c-8.705,8.445-25.755,18.07-52.84,6.81c-42.29-17.665-37.018-56.425-37.018-68.765l13.415-6.14
				c0,25.19,12.648,48.38,37.683,45.615c6.912-0.765,17.155-5.325,22.325-16.28c2.15-4.3,3.43-9.625,3.43-16.13h153.29
				c0,6.505,1.28,11.83,3.43,16.13c5.175,10.955,15.415,15.515,22.325,16.28c24.985,2.765,37.685-20.425,37.685-45.615l13.415,6.14
				c0,12.34,5.27,51.1-37.02,68.765c-27.135,11.26-44.185,1.635-52.89-6.81c4.2,11.875,14.44,29.85,38.35,34.1
				c24.32,4.35,44.955-13.21,48.895-17.155l5.325,18.485c-3.995,3.94-23.805,22.475-54.22,19.815
				C317.08,402.995,290.355,368.795,290.355,368.795z"/>
			<path style="fill:#EAE9E9;" d="M336.075,312.525H175.925c2.15-4.3,3.43-9.625,3.43-16.13h153.29
				C332.645,302.9,333.925,308.225,336.075,312.525z"/>
			<path style="fill:#FFFFFF;" d="M172.605,300.365v-47.75c0-6.665-5.403-12.07-12.065-12.07h-40.523
				c-4.835,0-9.197-2.885-11.1-7.325c-1.895-4.445-0.96-9.59,2.388-13.08L246.17,79.39c2.28-2.375,5.42-3.715,8.715-3.715
				c3.285,0,6.43,1.34,8.71,3.715L398.46,220.14c3.34,3.49,4.285,8.635,2.39,13.08c-1.905,4.44-6.265,7.325-11.1,7.325h-40.53
				c-6.66,0-12.065,5.405-12.065,12.07v47.75H172.605z"/>
			<path style="fill:#727171;" d="M207.32,317.555c0,6.82-5.525,12.351-12.345,12.351c-6.815,0-12.34-5.53-12.34-12.351
				c0-6.815,5.525-12.345,12.34-12.345C201.795,305.21,207.32,310.74,207.32,317.555z"/>
			<path style="fill:#727171;" d="M326.56,317.555c0,6.82-5.525,12.351-12.345,12.351c-6.815,0-12.34-5.53-12.34-12.351
				c0-6.815,5.525-12.345,12.34-12.345C321.035,305.21,326.56,310.74,326.56,317.555z"/>
			<g style="opacity:0.06;">
				<path style="fill:#231815;" d="M357.94,406.53c30.415,2.66,50.225-15.875,54.22-19.815l-5.325-18.485
					c-3.94,3.945-24.575,21.505-48.895,17.155c-23.91-4.25-34.15-22.225-38.35-34.1c8.705,8.445,25.755,18.07,52.89,6.81
					c42.29-17.665,37.02-56.425,37.02-68.765l-13.415-6.14c0,25.19-12.7,48.38-37.685,45.615c-6.91-0.765-17.15-5.325-22.325-16.28
					c-1.69-3.385-2.815-7.43-3.23-12.16h4.31v-47.75c0-6.665,5.405-12.07,12.065-12.07h40.53c4.835,0,9.195-2.885,11.1-7.325
					c1.895-4.445,0.95-9.59-2.39-13.08L263.595,79.39c-2.28-2.375-5.425-3.715-8.71-3.715v303.47c0.81-3.2,1.115-5.18,1.115-5.18
					s5.53,38.76,40.6,60.005c21.15,12.75,49.82,9.73,55.245,8.195l6.195-17.665c-5.425,1.535-31.28,4.66-50.38-11.01
					c-18.125-14.95-19.045-32.815-17.305-44.695C290.355,368.795,317.08,402.995,357.94,406.53z"/>
			</g>
		</g>
		<path style="fill:#EAE9E9;" d="M354.68,234.635l-21.955-21.96v38.265c0,0,2.605-16.09,8.26-16.09
			C346.64,234.85,354.68,234.635,354.68,234.635z"/>
	</g>
</g>
</svg>
