<svg xmlns="http://www.w3.org/2000/svg" xmlns:xlink="http://www.w3.org/1999/xlink" width="1200" height="800" viewBox="0 0 1200 800">
  <defs>
    <clipPath id="clip-アートボード_1">
      <rect width="1200" height="800"/>
    </clipPath>
  </defs>
  <g id="アートボード_1" data-name="アートボード 1" clip-path="url(#clip-アートボード_1)">
    <g id="意匠">
      <g id="グループ_30" data-name="グループ 30">
        <g id="グループ_31" data-name="グループ 31">
          <g id="グループ_28" data-name="グループ 28">
            <rect id="長方形_1" data-name="長方形 1" width="1200" height="800" transform="translate(0 0)" fill="none" opacity="0.6"/>
            <g id="グループ_1" data-name="グループ 1" opacity="0.6">
              <path id="パス_1" data-name="パス 1" d="M79.788,122.537l-11.428-6.1-.206,0a13.641,13.641,0,0,0-11.725,7.2c-2.194,4.112-2.651,8.354-3.092,12.458a46.234,46.234,0,0,1-1.47,8.55,14.528,14.528,0,0,1-1.279,3.245l-.588.858.986.333c4.587,1.548,10.468,1.111,16.135-1.2a25.954,25.954,0,0,0,13.325-11.429,13.634,13.634,0,0,0-.547-13.748Zm-2.337,12.326a18.447,18.447,0,0,1-2.3,3.331c-.148.128-.3.269-.456.425-1.737,1.754-4.328,1.414-3.183-1.847s-1.667-3.912-3.6-1.623c-2.427,2.873-3.965,1.011-3.631-.451s1.916-3.593.24-4.636c-1.01-.629-2.059.6-3.764,2.309-.978.977-3.5,1.013-2.957-2.852a19.045,19.045,0,0,1,1.627-4.276,10.307,10.307,0,0,1,8.159-5.368l9.786,5.221A10.313,10.313,0,0,1,77.451,134.863Z" fill="#E39827"/>
              <path id="パス_2" data-name="パス 2" d="M70.633,105.372a6.7,6.7,0,0,0,2.585,9.375l5.271,2.813a6.7,6.7,0,0,0,9.229-3.071l3.532-7.544L74.934,98.238Z" fill="#E39827"/>
              <path id="パス_3" data-name="パス 3" d="M110.763,50.784l-.04-.02a6.481,6.481,0,0,0-8.6,2.372L76.462,95.7,92.5,104.263,113.58,59.25A6.48,6.48,0,0,0,110.763,50.784Z" fill="#E39827"/>
            </g>
            <g id="グループ_2" data-name="グループ 2" opacity="0.6">
              <path id="パス_4" data-name="パス 4" d="M279.788,122.537l-11.428-6.1-.206,0a13.641,13.641,0,0,0-11.725,7.2c-2.194,4.112-2.651,8.354-3.092,12.458a46.235,46.235,0,0,1-1.47,8.55,14.527,14.527,0,0,1-1.279,3.245l-.588.858.986.333c4.587,1.548,10.468,1.111,16.135-1.2a25.954,25.954,0,0,0,13.325-11.429,13.634,13.634,0,0,0-.547-13.748Zm-2.337,12.326a18.447,18.447,0,0,1-2.3,3.331c-.148.128-.3.269-.456.425-1.737,1.754-4.328,1.414-3.183-1.847s-1.667-3.912-3.6-1.623c-2.427,2.873-3.965,1.011-3.631-.451s1.916-3.593.24-4.636c-1.01-.629-2.059.6-3.764,2.309-.978.977-3.5,1.013-2.957-2.852a19.044,19.044,0,0,1,1.627-4.276,10.307,10.307,0,0,1,8.159-5.368l9.786,5.221A10.313,10.313,0,0,1,277.451,134.863Z" fill="#E39827"/>
              <path id="パス_5" data-name="パス 5" d="M270.633,105.372a6.7,6.7,0,0,0,2.585,9.375l5.271,2.813a6.7,6.7,0,0,0,9.229-3.071l3.532-7.544-16.316-8.707Z" fill="#E39827"/>
              <path id="パス_6" data-name="パス 6" d="M310.763,50.784l-.04-.02a6.481,6.481,0,0,0-8.6,2.372L276.462,95.7l16.043,8.561L313.58,59.25A6.48,6.48,0,0,0,310.763,50.784Z" fill="#E39827"/>
            </g>
            <g id="グループ_3" data-name="グループ 3" opacity="0.6">
              <path id="パス_7" data-name="パス 7" d="M479.788,122.537l-11.428-6.1-.206,0a13.641,13.641,0,0,0-11.725,7.2c-2.194,4.112-2.651,8.354-3.092,12.458a46.236,46.236,0,0,1-1.47,8.55,14.53,14.53,0,0,1-1.279,3.245l-.588.858.986.333c4.587,1.548,10.468,1.111,16.135-1.2a25.954,25.954,0,0,0,13.325-11.429,13.634,13.634,0,0,0-.547-13.748Zm-2.337,12.326a18.447,18.447,0,0,1-2.3,3.331c-.148.128-.3.269-.456.425-1.737,1.754-4.328,1.414-3.183-1.847s-1.667-3.912-3.6-1.623c-2.427,2.873-3.965,1.011-3.631-.451s1.916-3.593.24-4.636c-1.01-.629-2.059.6-3.764,2.309-.978.977-3.5,1.013-2.957-2.852a19.044,19.044,0,0,1,1.627-4.276,10.307,10.307,0,0,1,8.159-5.368l9.786,5.221A10.313,10.313,0,0,1,477.451,134.863Z" fill="#E39827"/>
              <path id="パス_8" data-name="パス 8" d="M470.633,105.372a6.7,6.7,0,0,0,2.585,9.375l5.271,2.813a6.7,6.7,0,0,0,9.229-3.071l3.532-7.544-16.316-8.707Z" fill="#E39827"/>
              <path id="パス_9" data-name="パス 9" d="M510.763,50.784l-.04-.02a6.481,6.481,0,0,0-8.6,2.372L476.462,95.7l16.043,8.561L513.58,59.25A6.48,6.48,0,0,0,510.763,50.784Z" fill="#E39827"/>
            </g>
            <g id="グループ_4" data-name="グループ 4" opacity="0.6">
              <path id="パス_10" data-name="パス 10" d="M679.788,122.537l-11.428-6.1-.206,0a13.641,13.641,0,0,0-11.725,7.2c-2.194,4.112-2.651,8.354-3.092,12.458a46.231,46.231,0,0,1-1.47,8.55,14.528,14.528,0,0,1-1.279,3.245l-.588.858.986.333c4.587,1.548,10.468,1.111,16.135-1.2a25.954,25.954,0,0,0,13.325-11.429,13.634,13.634,0,0,0-.547-13.748Zm-2.337,12.326a18.446,18.446,0,0,1-2.3,3.331c-.148.128-.3.269-.456.425-1.737,1.754-4.328,1.414-3.183-1.847s-1.667-3.912-3.6-1.623c-2.427,2.873-3.965,1.011-3.631-.451s1.916-3.593.24-4.636c-1.01-.629-2.059.6-3.764,2.309-.978.977-3.5,1.013-2.957-2.852a19.047,19.047,0,0,1,1.627-4.276,10.307,10.307,0,0,1,8.159-5.368l9.786,5.221A10.313,10.313,0,0,1,677.451,134.863Z" fill="#E39827"/>
              <path id="パス_11" data-name="パス 11" d="M670.633,105.372a6.7,6.7,0,0,0,2.585,9.375l5.271,2.813a6.7,6.7,0,0,0,9.229-3.071l3.532-7.544-16.316-8.707Z" fill="#E39827"/>
              <path id="パス_12" data-name="パス 12" d="M710.763,50.784l-.04-.02a6.481,6.481,0,0,0-8.6,2.372L676.462,95.7l16.043,8.561L713.58,59.25A6.48,6.48,0,0,0,710.763,50.784Z" fill="#E39827"/>
            </g>
            <g id="グループ_5" data-name="グループ 5" opacity="0.6">
              <path id="パス_13" data-name="パス 13" d="M879.788,122.537l-11.428-6.1-.206,0a13.641,13.641,0,0,0-11.725,7.2c-2.194,4.112-2.651,8.354-3.092,12.458a46.231,46.231,0,0,1-1.47,8.55,14.528,14.528,0,0,1-1.279,3.245l-.588.858.986.333c4.587,1.548,10.468,1.111,16.135-1.2a25.954,25.954,0,0,0,13.325-11.429,13.634,13.634,0,0,0-.547-13.748Zm-2.337,12.326a18.446,18.446,0,0,1-2.3,3.331c-.148.128-.3.269-.456.425-1.737,1.754-4.328,1.414-3.183-1.847s-1.667-3.912-3.6-1.623c-2.427,2.873-3.965,1.011-3.631-.451s1.916-3.593.24-4.636c-1.01-.629-2.059.6-3.764,2.309-.978.977-3.5,1.013-2.957-2.852a19.047,19.047,0,0,1,1.627-4.276,10.307,10.307,0,0,1,8.159-5.368l9.786,5.221A10.313,10.313,0,0,1,877.451,134.863Z" fill="#E39827"/>
              <path id="パス_14" data-name="パス 14" d="M870.633,105.372a6.7,6.7,0,0,0,2.585,9.375l5.271,2.813a6.7,6.7,0,0,0,9.229-3.071l3.532-7.544-16.316-8.707Z" fill="#E39827"/>
              <path id="パス_15" data-name="パス 15" d="M910.763,50.784l-.04-.02a6.481,6.481,0,0,0-8.6,2.372L876.462,95.7l16.043,8.561L913.58,59.25A6.48,6.48,0,0,0,910.763,50.784Z" fill="#E39827"/>
            </g>
            <g id="グループ_6" data-name="グループ 6" opacity="0.6">
              <path id="パス_16" data-name="パス 16" d="M1079.788,122.537l-11.428-6.1-.206,0a13.641,13.641,0,0,0-11.725,7.2c-2.194,4.112-2.651,8.354-3.092,12.458a46.231,46.231,0,0,1-1.47,8.55,14.526,14.526,0,0,1-1.279,3.245l-.588.858.986.333c4.587,1.548,10.468,1.111,16.135-1.2a25.955,25.955,0,0,0,13.325-11.429,13.635,13.635,0,0,0-.547-13.748Zm-2.337,12.326a18.452,18.452,0,0,1-2.3,3.331c-.148.128-.3.269-.456.425-1.737,1.754-4.328,1.414-3.183-1.847s-1.667-3.912-3.6-1.623c-2.427,2.873-3.965,1.011-3.631-.451s1.916-3.593.24-4.636c-1.01-.629-2.059.6-3.764,2.309-.978.977-3.5,1.013-2.957-2.852a19.05,19.05,0,0,1,1.627-4.276,10.307,10.307,0,0,1,8.159-5.368l9.786,5.221A10.313,10.313,0,0,1,1077.451,134.863Z" fill="#E39827"/>
              <path id="パス_17" data-name="パス 17" d="M1070.633,105.372a6.7,6.7,0,0,0,2.585,9.375l5.271,2.813a6.7,6.7,0,0,0,9.229-3.071l3.532-7.544-16.316-8.707Z" fill="#E39827"/>
              <path id="パス_18" data-name="パス 18" d="M1110.763,50.784l-.04-.02a6.481,6.481,0,0,0-8.6,2.372L1076.462,95.7l16.043,8.561L1113.58,59.25A6.48,6.48,0,0,0,1110.763,50.784Z" fill="#E39827"/>
            </g>
            <g id="グループ_7" data-name="グループ 7" opacity="0.6">
              <path id="パス_19" data-name="パス 19" d="M179.788,322.537l-11.428-6.1-.206.005a13.641,13.641,0,0,0-11.725,7.2c-2.194,4.112-2.651,8.354-3.092,12.458a46.235,46.235,0,0,1-1.47,8.55,14.527,14.527,0,0,1-1.279,3.245l-.588.858.986.333c4.587,1.548,10.468,1.111,16.135-1.2a25.954,25.954,0,0,0,13.325-11.429,13.634,13.634,0,0,0-.547-13.748Zm-2.337,12.326a18.447,18.447,0,0,1-2.3,3.331c-.148.128-.3.269-.456.425-1.737,1.754-4.328,1.414-3.183-1.847s-1.667-3.912-3.6-1.623c-2.427,2.873-3.965,1.011-3.631-.451s1.916-3.593.24-4.636c-1.01-.629-2.059.6-3.764,2.309-.978.977-3.5,1.013-2.957-2.852a19.045,19.045,0,0,1,1.627-4.276,10.307,10.307,0,0,1,8.159-5.368l9.786,5.221A10.313,10.313,0,0,1,177.451,334.863Z" fill="#E39827"/>
              <path id="パス_20" data-name="パス 20" d="M170.633,305.372a6.7,6.7,0,0,0,2.585,9.375l5.271,2.813a6.7,6.7,0,0,0,9.229-3.071l3.532-7.544-16.316-8.707Z" fill="#E39827"/>
              <path id="パス_21" data-name="パス 21" d="M210.763,250.784l-.04-.02a6.481,6.481,0,0,0-8.6,2.372L176.462,295.7l16.043,8.561L213.58,259.25A6.48,6.48,0,0,0,210.763,250.784Z" fill="#E39827"/>
            </g>
            <g id="グループ_8" data-name="グループ 8" opacity="0.6">
              <path id="パス_22" data-name="パス 22" d="M-20.212,322.537l-11.428-6.1-.206.005a13.641,13.641,0,0,0-11.725,7.2c-2.194,4.112-2.651,8.354-3.092,12.458a46.234,46.234,0,0,1-1.47,8.55,14.528,14.528,0,0,1-1.279,3.245l-.588.858.986.333c4.587,1.548,10.468,1.111,16.135-1.2a25.954,25.954,0,0,0,13.325-11.429,13.634,13.634,0,0,0-.547-13.748Zm-2.337,12.326a18.447,18.447,0,0,1-2.3,3.331c-.148.128-.3.269-.456.425-1.737,1.754-4.328,1.414-3.183-1.847s-1.667-3.912-3.6-1.623c-2.427,2.873-3.965,1.011-3.631-.451s1.916-3.593.24-4.636c-1.01-.629-2.059.6-3.764,2.309-.978.977-3.5,1.013-2.957-2.852a19.044,19.044,0,0,1,1.627-4.276,10.307,10.307,0,0,1,8.159-5.368l9.786,5.221A10.313,10.313,0,0,1-22.549,334.863Z" fill="#E39827"/>
              <path id="パス_23" data-name="パス 23" d="M-29.367,305.372a6.713,6.713,0,0,0-.722,5.243,6.706,6.706,0,0,0,3.307,4.132l5.271,2.813a6.709,6.709,0,0,0,5.275.447,6.717,6.717,0,0,0,3.954-3.518l3.532-7.544-16.316-8.707Z" fill="#E39827"/>
              <path id="パス_24" data-name="パス 24" d="M10.763,250.784l-.04-.02a6.481,6.481,0,0,0-8.6,2.372L-23.538,295.7l16.043,8.561L13.58,259.25A6.48,6.48,0,0,0,10.763,250.784Z" fill="#E39827"/>
            </g>
            <g id="グループ_9" data-name="グループ 9" opacity="0.6">
              <path id="パス_25" data-name="パス 25" d="M379.788,322.537l-11.428-6.1-.206.005a13.641,13.641,0,0,0-11.725,7.2c-2.194,4.112-2.651,8.354-3.092,12.458a46.236,46.236,0,0,1-1.47,8.55,14.53,14.53,0,0,1-1.279,3.245l-.588.858.986.333c4.587,1.548,10.468,1.111,16.135-1.2a25.954,25.954,0,0,0,13.325-11.429,13.634,13.634,0,0,0-.547-13.748Zm-2.337,12.326a18.447,18.447,0,0,1-2.3,3.331c-.148.128-.3.269-.456.425-1.737,1.754-4.328,1.414-3.183-1.847s-1.667-3.912-3.6-1.623c-2.427,2.873-3.965,1.011-3.631-.451s1.916-3.593.24-4.636c-1.01-.629-2.059.6-3.764,2.309-.978.977-3.5,1.013-2.957-2.852a19.043,19.043,0,0,1,1.627-4.276,10.307,10.307,0,0,1,8.159-5.368l9.786,5.221A10.313,10.313,0,0,1,377.451,334.863Z" fill="#E39827"/>
              <path id="パス_26" data-name="パス 26" d="M370.633,305.372a6.7,6.7,0,0,0,2.585,9.375l5.271,2.813a6.7,6.7,0,0,0,9.229-3.071l3.532-7.544-16.316-8.707Z" fill="#E39827"/>
              <path id="パス_27" data-name="パス 27" d="M410.763,250.784l-.04-.02a6.481,6.481,0,0,0-8.6,2.372L376.462,295.7l16.043,8.561L413.58,259.25A6.48,6.48,0,0,0,410.763,250.784Z" fill="#E39827"/>
            </g>
            <g id="グループ_10" data-name="グループ 10" opacity="0.6">
              <path id="パス_28" data-name="パス 28" d="M579.788,322.537l-11.428-6.1-.206.005a13.641,13.641,0,0,0-11.725,7.2c-2.194,4.112-2.651,8.354-3.092,12.458a46.231,46.231,0,0,1-1.47,8.55,14.528,14.528,0,0,1-1.279,3.245l-.588.858.986.333c4.587,1.548,10.468,1.111,16.135-1.2a25.954,25.954,0,0,0,13.325-11.429,13.634,13.634,0,0,0-.547-13.748Zm-2.337,12.326a18.446,18.446,0,0,1-2.3,3.331c-.148.128-.3.269-.456.425-1.737,1.754-4.328,1.414-3.183-1.847s-1.667-3.912-3.6-1.623c-2.427,2.873-3.965,1.011-3.631-.451s1.916-3.593.24-4.636c-1.01-.629-2.059.6-3.764,2.309-.978.977-3.5,1.013-2.957-2.852a19.046,19.046,0,0,1,1.627-4.276,10.307,10.307,0,0,1,8.159-5.368l9.786,5.221A10.313,10.313,0,0,1,577.451,334.863Z" fill="#E39827"/>
              <path id="パス_29" data-name="パス 29" d="M570.633,305.372a6.7,6.7,0,0,0,2.585,9.375l5.271,2.813a6.7,6.7,0,0,0,9.229-3.071l3.532-7.544-16.316-8.707Z" fill="#E39827"/>
              <path id="パス_30" data-name="パス 30" d="M610.763,250.784l-.04-.02a6.481,6.481,0,0,0-8.6,2.372L576.462,295.7l16.043,8.561L613.58,259.25A6.48,6.48,0,0,0,610.763,250.784Z" fill="#E39827"/>
            </g>
            <g id="グループ_11" data-name="グループ 11" opacity="0.6">
              <path id="パス_31" data-name="パス 31" d="M779.788,322.537l-11.428-6.1-.206.005a13.641,13.641,0,0,0-11.725,7.2c-2.194,4.112-2.651,8.354-3.092,12.458a46.231,46.231,0,0,1-1.47,8.55,14.528,14.528,0,0,1-1.279,3.245l-.588.858.986.333c4.587,1.548,10.468,1.111,16.135-1.2a25.954,25.954,0,0,0,13.325-11.429,13.634,13.634,0,0,0-.547-13.748Zm-2.337,12.326a18.446,18.446,0,0,1-2.3,3.331c-.148.128-.3.269-.456.425-1.737,1.754-4.328,1.414-3.183-1.847s-1.667-3.912-3.6-1.623c-2.427,2.873-3.965,1.011-3.631-.451s1.916-3.593.24-4.636c-1.01-.629-2.059.6-3.764,2.309-.978.977-3.5,1.013-2.957-2.852a19.046,19.046,0,0,1,1.627-4.276,10.307,10.307,0,0,1,8.159-5.368l9.786,5.221A10.313,10.313,0,0,1,777.451,334.863Z" fill="#E39827"/>
              <path id="パス_32" data-name="パス 32" d="M770.633,305.372a6.7,6.7,0,0,0,2.585,9.375l5.271,2.813a6.7,6.7,0,0,0,9.229-3.071l3.532-7.544-16.316-8.707Z" fill="#E39827"/>
              <path id="パス_33" data-name="パス 33" d="M810.763,250.784l-.04-.02a6.481,6.481,0,0,0-8.6,2.372L776.462,295.7l16.043,8.561L813.58,259.25A6.48,6.48,0,0,0,810.763,250.784Z" fill="#E39827"/>
            </g>
            <g id="グループ_12" data-name="グループ 12" opacity="0.6">
              <path id="パス_34" data-name="パス 34" d="M1179.788,322.537l-11.428-6.1-.206.005a13.641,13.641,0,0,0-11.725,7.2c-2.194,4.112-2.651,8.354-3.092,12.458a46.231,46.231,0,0,1-1.47,8.55,14.526,14.526,0,0,1-1.279,3.245l-.588.858.986.333c4.587,1.548,10.468,1.111,16.135-1.2a25.954,25.954,0,0,0,13.325-11.429,13.635,13.635,0,0,0-.547-13.748Zm-2.337,12.326a18.452,18.452,0,0,1-2.3,3.331c-.148.128-.3.269-.456.425-1.737,1.754-4.328,1.414-3.183-1.847s-1.667-3.912-3.6-1.623c-2.427,2.873-3.965,1.011-3.631-.451s1.916-3.593.24-4.636c-1.01-.629-2.059.6-3.764,2.309-.978.977-3.5,1.013-2.957-2.852a19.049,19.049,0,0,1,1.627-4.276,10.307,10.307,0,0,1,8.159-5.368l9.786,5.221A10.313,10.313,0,0,1,1177.451,334.863Z" fill="#E39827"/>
              <path id="パス_35" data-name="パス 35" d="M1170.633,305.372a6.7,6.7,0,0,0,2.585,9.375l5.271,2.813a6.7,6.7,0,0,0,9.229-3.071l3.532-7.544-16.316-8.707Z" fill="#E39827"/>
              <path id="パス_36" data-name="パス 36" d="M1210.763,250.784l-.04-.02a6.481,6.481,0,0,0-8.6,2.372l-25.66,42.566,16.043,8.561,21.075-45.013A6.48,6.48,0,0,0,1210.763,250.784Z" fill="#E39827"/>
            </g>
            <g id="グループ_13" data-name="グループ 13" opacity="0.6">
              <path id="パス_37" data-name="パス 37" d="M79.788,522.537l-11.428-6.1-.206,0a13.641,13.641,0,0,0-11.725,7.2c-2.194,4.112-2.651,8.354-3.092,12.458a46.234,46.234,0,0,1-1.47,8.55,14.525,14.525,0,0,1-1.279,3.245l-.588.858.986.333c4.587,1.548,10.468,1.111,16.135-1.2a25.954,25.954,0,0,0,13.325-11.429,13.634,13.634,0,0,0-.547-13.748Zm-2.337,12.326a18.443,18.443,0,0,1-2.3,3.331c-.148.128-.3.269-.456.425-1.737,1.754-4.328,1.414-3.183-1.847s-1.667-3.912-3.6-1.623c-2.427,2.873-3.965,1.011-3.631-.451s1.916-3.593.24-4.636c-1.01-.629-2.059.6-3.764,2.309-.978.977-3.5,1.013-2.957-2.852a19.045,19.045,0,0,1,1.627-4.276,10.307,10.307,0,0,1,8.159-5.368l9.786,5.221A10.313,10.313,0,0,1,77.451,534.863Z" fill="#E39827"/>
              <path id="パス_38" data-name="パス 38" d="M70.633,505.372a6.7,6.7,0,0,0,2.585,9.375l5.271,2.813a6.7,6.7,0,0,0,9.229-3.071l3.532-7.544-16.316-8.707Z" fill="#E39827"/>
              <path id="パス_39" data-name="パス 39" d="M110.763,450.784l-.04-.02a6.481,6.481,0,0,0-8.6,2.372L76.462,495.7,92.5,504.263,113.58,459.25A6.48,6.48,0,0,0,110.763,450.784Z" fill="#E39827"/>
            </g>
            <g id="グループ_14" data-name="グループ 14" opacity="0.6">
              <path id="パス_40" data-name="パス 40" d="M279.788,522.537l-11.428-6.1-.206,0a13.641,13.641,0,0,0-11.725,7.2c-2.194,4.112-2.651,8.354-3.092,12.458a46.235,46.235,0,0,1-1.47,8.55,14.524,14.524,0,0,1-1.279,3.245l-.588.858.986.333c4.587,1.548,10.468,1.111,16.135-1.2a25.954,25.954,0,0,0,13.325-11.429,13.634,13.634,0,0,0-.547-13.748Zm-2.337,12.326a18.443,18.443,0,0,1-2.3,3.331c-.148.128-.3.269-.456.425-1.737,1.754-4.328,1.414-3.183-1.847s-1.667-3.912-3.6-1.623c-2.427,2.873-3.965,1.011-3.631-.451s1.916-3.593.24-4.636c-1.01-.629-2.059.6-3.764,2.309-.978.977-3.5,1.013-2.957-2.852a19.044,19.044,0,0,1,1.627-4.276,10.307,10.307,0,0,1,8.159-5.368l9.786,5.221A10.313,10.313,0,0,1,277.451,534.863Z" fill="#E39827"/>
              <path id="パス_41" data-name="パス 41" d="M270.633,505.372a6.7,6.7,0,0,0,2.585,9.375l5.271,2.813a6.7,6.7,0,0,0,9.229-3.071l3.532-7.544-16.316-8.707Z" fill="#E39827"/>
              <path id="パス_42" data-name="パス 42" d="M310.763,450.784l-.04-.02a6.481,6.481,0,0,0-8.6,2.372L276.462,495.7l16.043,8.561L313.58,459.25A6.48,6.48,0,0,0,310.763,450.784Z" fill="#E39827"/>
            </g>
            <g id="グループ_15" data-name="グループ 15" opacity="0.6">
              <path id="パス_43" data-name="パス 43" d="M479.788,522.537l-11.428-6.1-.206,0a13.641,13.641,0,0,0-11.725,7.2c-2.194,4.112-2.651,8.354-3.092,12.458a46.236,46.236,0,0,1-1.47,8.55,14.527,14.527,0,0,1-1.279,3.245l-.588.858.986.333c4.587,1.548,10.468,1.111,16.135-1.2a25.954,25.954,0,0,0,13.325-11.429,13.634,13.634,0,0,0-.547-13.748Zm-2.337,12.326a18.443,18.443,0,0,1-2.3,3.331c-.148.128-.3.269-.456.425-1.737,1.754-4.328,1.414-3.183-1.847s-1.667-3.912-3.6-1.623c-2.427,2.873-3.965,1.011-3.631-.451s1.916-3.593.24-4.636c-1.01-.629-2.059.6-3.764,2.309-.978.977-3.5,1.013-2.957-2.852a19.044,19.044,0,0,1,1.627-4.276,10.307,10.307,0,0,1,8.159-5.368l9.786,5.221A10.313,10.313,0,0,1,477.451,534.863Z" fill="#E39827"/>
              <path id="パス_44" data-name="パス 44" d="M470.633,505.372a6.7,6.7,0,0,0,2.585,9.375l5.271,2.813a6.7,6.7,0,0,0,9.229-3.071l3.532-7.544-16.316-8.707Z" fill="#E39827"/>
              <path id="パス_45" data-name="パス 45" d="M510.763,450.784l-.04-.02a6.481,6.481,0,0,0-8.6,2.372L476.462,495.7l16.043,8.561L513.58,459.25A6.48,6.48,0,0,0,510.763,450.784Z" fill="#E39827"/>
            </g>
            <g id="グループ_16" data-name="グループ 16" opacity="0.6">
              <path id="パス_46" data-name="パス 46" d="M679.788,522.537l-11.428-6.1-.206,0a13.641,13.641,0,0,0-11.725,7.2c-2.194,4.112-2.651,8.354-3.092,12.458a46.231,46.231,0,0,1-1.47,8.55,14.525,14.525,0,0,1-1.279,3.245l-.588.858.986.333c4.587,1.548,10.468,1.111,16.135-1.2a25.954,25.954,0,0,0,13.325-11.429,13.634,13.634,0,0,0-.547-13.748Zm-2.337,12.326a18.441,18.441,0,0,1-2.3,3.331c-.148.128-.3.269-.456.425-1.737,1.754-4.328,1.414-3.183-1.847s-1.667-3.912-3.6-1.623c-2.427,2.873-3.965,1.011-3.631-.451s1.916-3.593.24-4.636c-1.01-.629-2.059.6-3.764,2.309-.978.977-3.5,1.013-2.957-2.852a19.047,19.047,0,0,1,1.627-4.276,10.307,10.307,0,0,1,8.159-5.368l9.786,5.221A10.313,10.313,0,0,1,677.451,534.863Z" fill="#E39827"/>
              <path id="パス_47" data-name="パス 47" d="M670.633,505.372a6.7,6.7,0,0,0,2.585,9.375l5.271,2.813a6.7,6.7,0,0,0,9.229-3.071l3.532-7.544-16.316-8.707Z" fill="#E39827"/>
              <path id="パス_48" data-name="パス 48" d="M710.763,450.784l-.04-.02a6.481,6.481,0,0,0-8.6,2.372L676.462,495.7l16.043,8.561L713.58,459.25A6.48,6.48,0,0,0,710.763,450.784Z" fill="#E39827"/>
            </g>
            <g id="グループ_17" data-name="グループ 17" opacity="0.6">
              <path id="パス_49" data-name="パス 49" d="M879.788,522.537l-11.428-6.1-.206,0a13.641,13.641,0,0,0-11.725,7.2c-2.194,4.112-2.651,8.354-3.092,12.458a46.231,46.231,0,0,1-1.47,8.55,14.525,14.525,0,0,1-1.279,3.245l-.588.858.986.333c4.587,1.548,10.468,1.111,16.135-1.2a25.954,25.954,0,0,0,13.325-11.429,13.634,13.634,0,0,0-.547-13.748Zm-2.337,12.326a18.441,18.441,0,0,1-2.3,3.331c-.148.128-.3.269-.456.425-1.737,1.754-4.328,1.414-3.183-1.847s-1.667-3.912-3.6-1.623c-2.427,2.873-3.965,1.011-3.631-.451s1.916-3.593.24-4.636c-1.01-.629-2.059.6-3.764,2.309-.978.977-3.5,1.013-2.957-2.852a19.047,19.047,0,0,1,1.627-4.276,10.307,10.307,0,0,1,8.159-5.368l9.786,5.221A10.313,10.313,0,0,1,877.451,534.863Z" fill="#E39827"/>
              <path id="パス_50" data-name="パス 50" d="M870.633,505.372a6.7,6.7,0,0,0,2.585,9.375l5.271,2.813a6.7,6.7,0,0,0,9.229-3.071l3.532-7.544-16.316-8.707Z" fill="#E39827"/>
              <path id="パス_51" data-name="パス 51" d="M910.763,450.784l-.04-.02a6.481,6.481,0,0,0-8.6,2.372L876.462,495.7l16.043,8.561L913.58,459.25A6.48,6.48,0,0,0,910.763,450.784Z" fill="#E39827"/>
            </g>
            <g id="グループ_18" data-name="グループ 18" opacity="0.6">
              <path id="パス_52" data-name="パス 52" d="M1079.788,522.537l-11.428-6.1-.206,0a13.641,13.641,0,0,0-11.725,7.2c-2.194,4.112-2.651,8.354-3.092,12.458a46.231,46.231,0,0,1-1.47,8.55,14.524,14.524,0,0,1-1.279,3.245l-.588.858.986.333c4.587,1.548,10.468,1.111,16.135-1.2a25.955,25.955,0,0,0,13.325-11.429,13.635,13.635,0,0,0-.547-13.748Zm-2.337,12.326a18.448,18.448,0,0,1-2.3,3.331c-.148.128-.3.269-.456.425-1.737,1.754-4.328,1.414-3.183-1.847s-1.667-3.912-3.6-1.623c-2.427,2.873-3.965,1.011-3.631-.451s1.916-3.593.24-4.636c-1.01-.629-2.059.6-3.764,2.309-.978.977-3.5,1.013-2.957-2.852a19.05,19.05,0,0,1,1.627-4.276,10.307,10.307,0,0,1,8.159-5.368l9.786,5.221A10.313,10.313,0,0,1,1077.451,534.863Z" fill="#E39827"/>
              <path id="パス_53" data-name="パス 53" d="M1070.633,505.372a6.7,6.7,0,0,0,2.585,9.375l5.271,2.813a6.7,6.7,0,0,0,9.229-3.071l3.532-7.544-16.316-8.707Z" fill="#E39827"/>
              <path id="パス_54" data-name="パス 54" d="M1110.763,450.784l-.04-.02a6.481,6.481,0,0,0-8.6,2.372l-25.66,42.566,16.043,8.561,21.075-45.013A6.48,6.48,0,0,0,1110.763,450.784Z" fill="#E39827"/>
            </g>
            <g id="グループ_19" data-name="グループ 19" opacity="0.6">
              <path id="パス_55" data-name="パス 55" d="M179.788,722.537l-11.428-6.1-.206,0a13.641,13.641,0,0,0-11.725,7.2c-2.194,4.112-2.651,8.354-3.092,12.458a46.235,46.235,0,0,1-1.47,8.55,14.524,14.524,0,0,1-1.279,3.245l-.588.858.986.333c4.587,1.548,10.468,1.111,16.135-1.2a25.954,25.954,0,0,0,13.325-11.429,13.634,13.634,0,0,0-.547-13.748Zm-2.337,12.326a18.443,18.443,0,0,1-2.3,3.331c-.148.128-.3.269-.456.425-1.737,1.754-4.328,1.414-3.183-1.847s-1.667-3.912-3.6-1.623c-2.427,2.873-3.965,1.011-3.631-.451s1.916-3.593.24-4.636c-1.01-.629-2.059.6-3.764,2.309-.978.977-3.5,1.013-2.957-2.852a19.046,19.046,0,0,1,1.627-4.276,10.307,10.307,0,0,1,8.159-5.368l9.786,5.221A10.313,10.313,0,0,1,177.451,734.863Z" fill="#E39827"/>
              <path id="パス_56" data-name="パス 56" d="M170.633,705.372a6.7,6.7,0,0,0,2.585,9.375l5.271,2.813a6.7,6.7,0,0,0,9.229-3.071l3.532-7.544-16.316-8.707Z" fill="#E39827"/>
              <path id="パス_57" data-name="パス 57" d="M210.763,650.784l-.04-.02a6.481,6.481,0,0,0-8.6,2.372L176.462,695.7l16.043,8.561L213.58,659.25A6.48,6.48,0,0,0,210.763,650.784Z" fill="#E39827"/>
            </g>
            <g id="グループ_20" data-name="グループ 20" opacity="0.6">
              <path id="パス_58" data-name="パス 58" d="M-20.212,722.537l-11.428-6.1-.206,0a13.641,13.641,0,0,0-11.725,7.2c-2.194,4.112-2.651,8.354-3.092,12.458a46.234,46.234,0,0,1-1.47,8.55,14.525,14.525,0,0,1-1.279,3.245l-.588.858.986.333c4.587,1.548,10.468,1.111,16.135-1.2a25.954,25.954,0,0,0,13.325-11.429,13.634,13.634,0,0,0-.547-13.748Zm-2.337,12.326a18.443,18.443,0,0,1-2.3,3.331c-.148.128-.3.269-.456.425-1.737,1.754-4.328,1.414-3.183-1.847s-1.667-3.912-3.6-1.623c-2.427,2.873-3.965,1.011-3.631-.451s1.916-3.593.24-4.636c-1.01-.629-2.059.6-3.764,2.309-.978.977-3.5,1.013-2.957-2.852a19.045,19.045,0,0,1,1.627-4.276,10.307,10.307,0,0,1,8.159-5.368l9.786,5.221A10.313,10.313,0,0,1-22.549,734.863Z" fill="#E39827"/>
              <path id="パス_59" data-name="パス 59" d="M-29.367,705.372a6.713,6.713,0,0,0-.722,5.243,6.706,6.706,0,0,0,3.307,4.132l5.271,2.813a6.709,6.709,0,0,0,5.275.447,6.718,6.718,0,0,0,3.954-3.518l3.532-7.544-16.316-8.707Z" fill="#E39827"/>
              <path id="パス_60" data-name="パス 60" d="M10.763,650.784l-.04-.02a6.481,6.481,0,0,0-8.6,2.372L-23.538,695.7l16.043,8.561L13.58,659.25A6.48,6.48,0,0,0,10.763,650.784Z" fill="#E39827"/>
            </g>
            <g id="グループ_21" data-name="グループ 21" opacity="0.6">
              <path id="パス_61" data-name="パス 61" d="M379.788,722.537l-11.428-6.1-.206,0a13.641,13.641,0,0,0-11.725,7.2c-2.194,4.112-2.651,8.354-3.092,12.458a46.236,46.236,0,0,1-1.47,8.55,14.527,14.527,0,0,1-1.279,3.245l-.588.858.986.333c4.587,1.548,10.468,1.111,16.135-1.2a25.954,25.954,0,0,0,13.325-11.429,13.634,13.634,0,0,0-.547-13.748Zm-2.337,12.326a18.443,18.443,0,0,1-2.3,3.331c-.148.128-.3.269-.456.425-1.737,1.754-4.328,1.414-3.183-1.847s-1.667-3.912-3.6-1.623c-2.427,2.873-3.965,1.011-3.631-.451s1.916-3.593.24-4.636c-1.01-.629-2.059.6-3.764,2.309-.978.977-3.5,1.013-2.957-2.852a19.044,19.044,0,0,1,1.627-4.276,10.307,10.307,0,0,1,8.159-5.368l9.786,5.221A10.313,10.313,0,0,1,377.451,734.863Z" fill="#E39827"/>
              <path id="パス_62" data-name="パス 62" d="M370.633,705.372a6.7,6.7,0,0,0,2.585,9.375l5.271,2.813a6.7,6.7,0,0,0,9.229-3.071l3.532-7.544-16.316-8.707Z" fill="#E39827"/>
              <path id="パス_63" data-name="パス 63" d="M410.763,650.784l-.04-.02a6.481,6.481,0,0,0-8.6,2.372L376.462,695.7l16.043,8.561L413.58,659.25A6.48,6.48,0,0,0,410.763,650.784Z" fill="#E39827"/>
            </g>
            <g id="グループ_22" data-name="グループ 22" opacity="0.6">
              <path id="パス_64" data-name="パス 64" d="M579.788,722.537l-11.428-6.1-.206,0a13.641,13.641,0,0,0-11.725,7.2c-2.194,4.112-2.651,8.354-3.092,12.458a46.231,46.231,0,0,1-1.47,8.55,14.525,14.525,0,0,1-1.279,3.245l-.588.858.986.333c4.587,1.548,10.468,1.111,16.135-1.2a25.954,25.954,0,0,0,13.325-11.429,13.634,13.634,0,0,0-.547-13.748Zm-2.337,12.326a18.441,18.441,0,0,1-2.3,3.331c-.148.128-.3.269-.456.425-1.737,1.754-4.328,1.414-3.183-1.847s-1.667-3.912-3.6-1.623c-2.427,2.873-3.965,1.011-3.631-.451s1.916-3.593.24-4.636c-1.01-.629-2.059.6-3.764,2.309-.978.977-3.5,1.013-2.957-2.852a19.047,19.047,0,0,1,1.627-4.276,10.307,10.307,0,0,1,8.159-5.368l9.786,5.221A10.313,10.313,0,0,1,577.451,734.863Z" fill="#E39827"/>
              <path id="パス_65" data-name="パス 65" d="M570.633,705.372a6.7,6.7,0,0,0,2.585,9.375l5.271,2.813a6.7,6.7,0,0,0,9.229-3.071l3.532-7.544-16.316-8.707Z" fill="#E39827"/>
              <path id="パス_66" data-name="パス 66" d="M610.763,650.784l-.04-.02a6.481,6.481,0,0,0-8.6,2.372L576.462,695.7l16.043,8.561L613.58,659.25A6.48,6.48,0,0,0,610.763,650.784Z" fill="#E39827"/>
            </g>
            <g id="グループ_23" data-name="グループ 23" opacity="0.6">
              <path id="パス_67" data-name="パス 67" d="M779.788,722.537l-11.428-6.1-.206,0a13.641,13.641,0,0,0-11.725,7.2c-2.194,4.112-2.651,8.354-3.092,12.458a46.231,46.231,0,0,1-1.47,8.55,14.525,14.525,0,0,1-1.279,3.245l-.588.858.986.333c4.587,1.548,10.468,1.111,16.135-1.2a25.954,25.954,0,0,0,13.325-11.429,13.634,13.634,0,0,0-.547-13.748Zm-2.337,12.326a18.441,18.441,0,0,1-2.3,3.331c-.148.128-.3.269-.456.425-1.737,1.754-4.328,1.414-3.183-1.847s-1.667-3.912-3.6-1.623c-2.427,2.873-3.965,1.011-3.631-.451s1.916-3.593.24-4.636c-1.01-.629-2.059.6-3.764,2.309-.978.977-3.5,1.013-2.957-2.852a19.047,19.047,0,0,1,1.627-4.276,10.307,10.307,0,0,1,8.159-5.368l9.786,5.221A10.313,10.313,0,0,1,777.451,734.863Z" fill="#E39827"/>
              <path id="パス_68" data-name="パス 68" d="M770.633,705.372a6.7,6.7,0,0,0,2.585,9.375l5.271,2.813a6.7,6.7,0,0,0,9.229-3.071l3.532-7.544-16.316-8.707Z" fill="#E39827"/>
              <path id="パス_69" data-name="パス 69" d="M810.763,650.784l-.04-.02a6.481,6.481,0,0,0-8.6,2.372L776.462,695.7l16.043,8.561L813.58,659.25A6.48,6.48,0,0,0,810.763,650.784Z" fill="#E39827"/>
            </g>
            <g id="グループ_24" data-name="グループ 24" opacity="0.6">
              <path id="パス_70" data-name="パス 70" d="M979.788,722.537l-11.428-6.1-.206,0a13.641,13.641,0,0,0-11.725,7.2c-2.194,4.112-2.651,8.354-3.092,12.458a46.231,46.231,0,0,1-1.47,8.55,14.525,14.525,0,0,1-1.279,3.245l-.588.858.986.333c4.587,1.548,10.468,1.111,16.135-1.2a25.954,25.954,0,0,0,13.325-11.429,13.634,13.634,0,0,0-.547-13.748Zm-2.337,12.326a18.441,18.441,0,0,1-2.3,3.331c-.148.128-.3.269-.456.425-1.737,1.754-4.328,1.414-3.183-1.847s-1.667-3.912-3.6-1.623c-2.427,2.873-3.965,1.011-3.631-.451s1.916-3.593.24-4.636c-1.01-.629-2.059.6-3.764,2.309-.978.977-3.5,1.013-2.957-2.852a19.047,19.047,0,0,1,1.627-4.276,10.307,10.307,0,0,1,8.159-5.368l9.786,5.221A10.313,10.313,0,0,1,977.451,734.863Z" fill="#E39827"/>
              <path id="パス_71" data-name="パス 71" d="M970.633,705.372a6.7,6.7,0,0,0,2.585,9.375l5.271,2.813a6.7,6.7,0,0,0,9.229-3.071l3.532-7.544-16.316-8.707Z" fill="#E39827"/>
              <path id="パス_72" data-name="パス 72" d="M1010.763,650.784l-.04-.02a6.481,6.481,0,0,0-8.6,2.372L976.462,695.7l16.043,8.561,21.075-45.013A6.48,6.48,0,0,0,1010.763,650.784Z" fill="#E39827"/>
            </g>
            <g id="グループ_25" data-name="グループ 25" opacity="0.6">
              <path id="パス_73" data-name="パス 73" d="M1179.788,722.537l-11.428-6.1-.206,0a13.641,13.641,0,0,0-11.725,7.2c-2.194,4.112-2.651,8.354-3.092,12.458a46.231,46.231,0,0,1-1.47,8.55,14.524,14.524,0,0,1-1.279,3.245l-.588.858.986.333c4.587,1.548,10.468,1.111,16.135-1.2a25.955,25.955,0,0,0,13.325-11.429,13.635,13.635,0,0,0-.547-13.748Zm-2.337,12.326a18.448,18.448,0,0,1-2.3,3.331c-.148.128-.3.269-.456.425-1.737,1.754-4.328,1.414-3.183-1.847s-1.667-3.912-3.6-1.623c-2.427,2.873-3.965,1.011-3.631-.451s1.916-3.593.24-4.636c-1.01-.629-2.059.6-3.764,2.309-.978.977-3.5,1.013-2.957-2.852a19.05,19.05,0,0,1,1.627-4.276,10.307,10.307,0,0,1,8.159-5.368l9.786,5.221A10.313,10.313,0,0,1,1177.451,734.863Z" fill="#E39827"/>
              <path id="パス_74" data-name="パス 74" d="M1170.633,705.372a6.7,6.7,0,0,0,2.585,9.375l5.271,2.813a6.7,6.7,0,0,0,9.229-3.071l3.532-7.544-16.316-8.707Z" fill="#E39827"/>
              <path id="パス_75" data-name="パス 75" d="M1210.763,650.784l-.04-.02a6.481,6.481,0,0,0-8.6,2.372l-25.66,42.566,16.043,8.561,21.075-45.013A6.48,6.48,0,0,0,1210.763,650.784Z" fill="#E39827"/>
            </g>
            <g id="グループ_27" data-name="グループ 27" opacity="0.6">
              <path id="パス_76" data-name="パス 76" d="M982.155,306.521h0a3.749,3.749,0,0,1-3.324-1.685,1.71,1.71,0,0,1,1.124-2.9h2.2V263.5h-6.214s-2.891-4.129-5.419-7.785q-.211-.316-.423-.6c-1.551-2.236-2.891-4.21-3.263-4.784-.292-.473-.907-.433-1.611.09-1.562,1.129-3.546,4.573-3.415,9.78.01.484.02.937.05,1.38.313,6.406,1.5,8.118,1.5,8.118a45.213,45.213,0,0,0-4.935,9.327,53.516,53.516,0,0,0-2.88,9.759c-.282,1.441-.514,2.951-.685,4.522-.011.071-.011.152-.02.222l.141-.01.08-.01h.121l5.66-.352-.755,6.1,5.962-.927,1.007,4.361,4.366-2.3a97.974,97.974,0,0,0,4,9.748c1.315,2.146,4.21,1.533,6.316.308.156-.092.286-.174.4-.253l.014.01Zm-15.288-38.96c-1.542-1.781-2.19-6.123-1.667-8.157.327-1.281,1.585-1.811,2.371-.906s3.556,5.968,3.556,5.968S967.255,267.367,966.867,267.561ZM971.58,289.6a43.89,43.89,0,0,1-2.014-4.868,8,8,0,0,1,6.546,3.022l1.007,2.182Z" fill="#E39827"/>
              <path id="パス_77" data-name="パス 77" d="M1009.139,316.587a14.837,14.837,0,0,0-7.367-5.06c-1.33-.476-2.622-.825-3.753-1.121s-2.1-.547-2.728-.785h0c-.149-.056-.3-.122-.451-.182v-2.63a5.135,5.135,0,0,0-.391-2.277,2.261,2.261,0,0,0-.874-.953,2.527,2.527,0,0,0-1.3-.326h-.426v-.711a16.758,16.758,0,0,0,4.681-7.907,5.178,5.178,0,0,0,.867-.478,5.735,5.735,0,0,0,1.78-2.118,19.828,19.828,0,0,0,1.422-3.823,8.161,8.161,0,0,0,.352-2.225,4.032,4.032,0,0,0-.438-1.931,3.054,3.054,0,0,0-1.295-1.279l-.1-3.308c2.443-.486,4-1.75,4.284-4.449.668-6.411-6.654-12.5-16.663-14.163a2.145,2.145,0,0,0,.081-.4,2.035,2.035,0,0,0-1.776-2.266,1.981,1.981,0,0,0-1.858.906v19.36c4.225.449,8.105,1.042,11.322,1.214a19.536,19.536,0,0,1,1.768,6.63l.716-1.6.7-.152a1.389,1.389,0,0,1,.588.183.878.878,0,0,1,.319.344,1.912,1.912,0,0,1,.181.906,6.029,6.029,0,0,1-.269,1.627,13.586,13.586,0,0,1-1.629,4.02,2.844,2.844,0,0,1-.725.735,3.679,3.679,0,0,1-.917.448l-.6.211-.11.623c-.678,3.828-3.033,6.028-4.579,7.736l-.28.31v1.946h-6.487v1.779h9.088l.166.015.034.012.032.051a3.351,3.351,0,0,1,.164,1.3v4.069l.649.286c.407.18.816.344,1.213.492l.382-1.017-.382,1.018c1.088.4,2.511.718,4.088,1.159a19.383,19.383,0,0,1,7,3.181,8.8,8.8,0,0,1,2.421,2.97,10.039,10.039,0,0,1,.957,4.5c0,.364-.02.748-.049,1.144l-.095.112a4.71,4.71,0,0,1-.939.665,33.01,33.01,0,0,1-9.009,2.924,79.387,79.387,0,0,1-15.718,1.493,74.775,74.775,0,0,1-19-2.266,28.307,28.307,0,0,1-5.3-1.92,6.529,6.529,0,0,1-1.269-.807,1.164,1.164,0,0,1-.189-.2c-.032-.4-.05-.783-.05-1.151a10.568,10.568,0,0,1,.621-3.714h-2.29a13.15,13.15,0,0,0-.5,3.714c0,.461.019.936.061,1.428a1.934,1.934,0,0,0,.333.907,4.405,4.405,0,0,0,1.24,1.143,17.949,17.949,0,0,0,3.759,1.756c4.8,1.712,12.744,3.279,22.589,3.281a76.773,76.773,0,0,0,19.57-2.342,30.341,30.341,0,0,0,5.727-2.084,8.649,8.649,0,0,0,1.707-1.106,3.386,3.386,0,0,0,.584-.648,1.935,1.935,0,0,0,.335-.907q.06-.735.059-1.424A11.592,11.592,0,0,0,1009.139,316.587Z" fill="#E39827"/>
              <path id="パス_78" data-name="パス 78" d="M989.307,281.223a4.837,4.837,0,0,0-4.751,3.951h-2.4v1.779h2.4a4.838,4.838,0,1,0,4.751-5.73Zm0,7.9a3.062,3.062,0,1,1,3.063-3.061A3.066,3.066,0,0,1,989.307,289.126Z" fill="#E39827"/>
              <g id="グループ_26" data-name="グループ 26">
                <path id="パス_79" data-name="パス 79" d="M975.854,336.8a7.369,7.369,0,0,0,.622,7.409,14.026,14.026,0,0,0,7.906,5.241,12.858,12.858,0,0,0,8.733-.432l.506-.244-.372-.421a7.839,7.839,0,0,1-.9-1.655,24.924,24.924,0,0,1-1.358-4.487,17.626,17.626,0,0,0-2.487-6.474,7.372,7.372,0,0,0-6.768-3.081l-.111.011L975.9,336.7Zm1.515,1.109,4.9-3.451A5.571,5.571,0,0,1,987,336.794a10.273,10.273,0,0,1,1.157,2.185c.55,2.036-.806,2.185-1.4,1.726-1.029-.8-1.673-1.392-2.173-.987-.829.671.162,1.709.438,2.47s-.425,1.863-1.918.483c-1.189-1.1-2.654-.563-1.823,1.11s-.536,2.028-1.584,1.2c-.095-.073-.185-.139-.273-.2a9.989,9.989,0,0,1-1.455-1.634A5.572,5.572,0,0,1,977.369,337.91Z" fill="#E39827"/>
                <path id="パス_80" data-name="パス 80" d="M979.668,326.885a3.623,3.623,0,0,1-.762,5.2l-2.639,1.859a3.623,3.623,0,0,1-5.154-1.032l-2.4-3.811,8.17-5.755Z" fill="#E39827"/>
                <path id="パス_81" data-name="パス 81" d="M954.513,300.285l.02-.014a3.5,3.5,0,0,1,4.771.7L975.9,322.088l-8.033,5.658-14.3-22.734A3.5,3.5,0,0,1,954.513,300.285Z" fill="#E39827"/>
              </g>
            </g>
          </g>
        </g>
      </g>
    </g>
  </g>
</svg>
