<svg xmlns="http://www.w3.org/2000/svg" width="900" height="180" viewBox="0 0 900 180"><g transform="translate(-2590 -225)"><path d="M2590,225v90a90,90,0,0,0,180,0,90,90,0,0,0,180,0,90,90,0,0,0,180,0,90,90,0,0,0,180,0,90,90,0,0,0,180,0V225Z" fill="#b01e23"/><path d="M2894.887,343.761a2.221,2.221,0,0,1-.943,1.457l-6.515,5.058a3.4,3.4,0,0,1-2.057.943,3.835,3.835,0,0,1-2.143-.943l-4.372-3.258H2848.94l-3.429,3.172a3.306,3.306,0,0,1-2.142,1.029,3.629,3.629,0,0,1-2.058-.943l-2.057-1.629c-1.371-.943-1.886-.857-3,0-1.028.857-1.8.6-2.228.086a1.061,1.061,0,0,1-.343-.686,1.754,1.754,0,0,1,.771-1.285l4.287-3.258V304.586c0-1.8-1.458-1.371-2.487-.685-1.028.771-1.8.6-2.228.085a1.048,1.048,0,0,1-.258-.771,1.911,1.911,0,0,1,.858-1.458l6.515-4.886a3.315,3.315,0,0,1,2.057-.943,2.965,2.965,0,0,1,1.972.943l4.8,4.115h28.2l4.714-4.115a3.318,3.318,0,0,1,2.057-1.028,4.155,4.155,0,0,1,2.229,1.028l2.143,1.543a2.328,2.328,0,0,0,3,0c1.029-.771,1.715-.6,2.229-.085a1.025,1.025,0,0,1,.343.685,1.909,1.909,0,0,1-.943,1.458l-4.886,3.772v38.832l.257.171a2.137,2.137,0,0,0,3,0c.772-.6,1.457-.772,1.972-.343C2894.716,343.247,2894.887,343.5,2894.887,343.761Zm-46.89.515h31.717V303.815H2848Z" fill="#fff"/><path d="M3067.623,342.561a1.274,1.274,0,0,1-1.286,1.372h-.685c-1.887,0-2.658.428-4.116,4.371-.942,2.4-3.343,4.029-8.571,4.715a142.514,142.514,0,0,1-17.4,1.029,101.2,101.2,0,0,1-11.744-.515c-9.686-1.2-11.572-4.372-11.572-12.258v-42c0-2.058-1.372-1.458-2.486-.686-1.029.771-1.886.6-2.229.085a1.448,1.448,0,0,1,.429-2.057l6.429-5.143a3.449,3.449,0,0,1,2.057-1.029,3.957,3.957,0,0,1,2.143,1.029l2.229,1.629c1.286.943,1.886.771,3.257-.172a1.471,1.471,0,0,1,2.058.086,1.319,1.319,0,0,1-.343,1.886l-4.2,3.172v22.459c2.058-2.658,3.944-5.229,6.172-8.316,1.372-1.971,3.258-2.571,7.287-2.486s12.858,0,18.687-.343a5.355,5.355,0,0,0,3.772-1.542,16.663,16.663,0,0,0,2.057-3.172c.6-1.2,1.286-1.286,2.058-.943.685.343,1.2.943.6,2.143l-3.686,7.8c-1.371,2.829-2.4,3.6-5.486,3.686-6.686.171-14.058.343-19.716.343-2.743,0-4.372.171-5.657,1.114a50.065,50.065,0,0,0-6.087,5.829v16.116c0,5.914,1.8,8.572,7.973,9.687a50.411,50.411,0,0,0,7.114.428,83.345,83.345,0,0,0,9.172-.515c3.773-.685,6.6-2.4,7.8-5.828.943-2.486,2.315-3.344,5.058-3.344h7.629A1.32,1.32,0,0,1,3067.623,342.561Zm-28.888-44.489a1.768,1.768,0,0,1,.6-1.2l5.4-5.143c1.2-1.114,1.715-1.2,2.915-.171l2.657,2.314c.6.515.943.515,1.972-.343,1.286-1.028,2.743.429,1.543,1.629l-5.658,5.658c-.771.771-1.457.771-2.4,0l-2.743-2.315c-.943-.771-1.286-.686-2.229.171A1.18,1.18,0,0,1,3038.735,298.072Zm31.631-3.858a1.315,1.315,0,0,1-.429.943l-5.657,5.658a1.484,1.484,0,0,1-2.4,0l-2.742-2.315c-.944-.771-1.287-.686-2.144.171a1.2,1.2,0,0,1-2.143-.685,1.611,1.611,0,0,1,.6-1.115l5.4-5.143c1.2-1.114,1.8-1.2,2.914-.171l2.658,2.314c.6.515,1.029.6,2.057-.343A1.076,1.076,0,0,1,3070.366,294.214Z" fill="#fff"/><path d="M3244.387,326.959H3195.1c-2.487,0-3.344.429-4.715,2.573a1.924,1.924,0,0,1-1.371.942,1.5,1.5,0,0,1-1.458-1.457,1.883,1.883,0,0,1,.343-1.114l3.258-5.572c1.371-2.315,2.571-3.087,5.229-3.087h49.29c2.485,0,3.343-.428,4.714-2.571a1.559,1.559,0,0,1,1.371-.857,1.429,1.429,0,0,1,1.458,1.372,2.79,2.79,0,0,1-.343,1.114l-3.258,5.572C3248.244,326.188,3246.958,326.959,3244.387,326.959Z" fill="#fff"/></g></svg>