<svg xmlns="http://www.w3.org/2000/svg" width="1627" height="403.5" viewBox="0 0 1627 403.5"><path d="M295.5-25c0-5.5-4.5-10.5-4.5-15.5,4.5,0,0-10,0-15,0,0,4.5-10,0-14.5,4.5,0,4.5-10,4.5-15.5H281c-25.5,0-45-5-75.5-5,0,0-4.5,0-10-5-9.5,10-29,10-45,5,0-14.5-4.5-34,0-50v-5c0-24,0-49.5-4.5-74.5,4.5-4.5,4.5-4.5,4.5-9.5,0-5.5-4.5-5.5-4.5-10,0-5.5,4.5-5.5,4.5-10.5,0,0,0-5-4.5-5,4.5-4.5,10-10,10-19.5-5.5,0-10,0-10-10,4.5,0,10-10,4.5-10-4.5,0-4.5-5-4.5-5v-5s0-5.5-5-5.5c0-4.5,5-29.5,5-29.5h0v-5c0-4.5,0-4.5-5-10h9.5v-10c-4.5,5.5-14,0-14,0H86c-4.5,0-9.5,5.5-14.5,0-5,5.5-15,0-25,0a10.029,10.029,0,0,0,10,10H41v15c0,5,0,10-4.5,14.5,0,5.5,4.5,10.5,4.5,20.5,0-5.5-4.5,0-4.5,0,0,5,4.5,5,4.5,10-4.5,0-4.5,5-4.5,5,0,5,0,5,4.5,9.5v15c-4.5,5.5-9.5,15-19.5,20,5,0,5,5.5,5,5.5,10,4.5,10,4.5,14.5,10-4.5,0-4.5,5-4.5,5,0,4.5,4.5,4.5,4.5,10-4.5,4.5-4.5,9.5,0,14.5,0,5-4.5,5-4.5,9.5,0,6,0,6,4.5,11,0,4.5-4.5,4.5-9.5,10,0,4.5,9.5,4.5,9.5,9.5s0,5-4.5,10c10,9.5,0,20-5,30,15,5,5,9.5,9.5,15-4.5,0,0,4.5-4.5,4.5,4.5,5,0,5,0,5V-70c0,14.5,4.5,24.5,0,34.5C36.5-25,41-15,41-5.5c5.5,0,10,0,10,5,10.5,5,20.5,5,35,5,20,0,50.5,0,74.5-5,11,0,20.5,0,30.5,5,25.5-5,55,0,80-5,0-5,5,0,5-5,5,0,5,5,5,5h14.5ZM91.5-339.5c-5.5,0-5.5,5-10,5,0,0-5,0-5-5,0,5-5-5-5-5h20c4.5,5,9.5,5,9.5,10,0,0,0,5-5,5C96-334.5,96-334.5,91.5-339.5Zm35,209.5c-5-4.5,0-10.5,4.5-10.5v6c0-6,0,0,5.5,0C131-134.5,126.5-130,126.5-130Zm4.5-49.5h-4.5s0-11,4.5-5a4.58,4.58,0,0,0-4.5,5Zm5.5-115c-5.5,0-10,5-10,5l-5,5c0,4.5-15.5,15-20.5,19.5-5,5.5-5,5.5-5,0,5,0,15.5-9.5,20.5-15l5-9.5,9.5-5S136.5-299.5,136.5-294.5Zm509.5,95c0-23.5-5-43.5-9-68.5-10.5,0-15-9-10.5-13.5-4.5,0-9-5.5-4.5-10.5-19-14.5-29-34.5-54-48h0c-5,0-19.5-10-24-10,0-5-10.5,0-15-9.5-4.5,4.5,4.5-10,4.5-25-4.5-9.5-9-9.5-18-9.5-5.5,5-11,9.5-15,9.5,0,15-5,11-10,20H461v-5c-9.5,5-19,5-24,14.5-9.5,0-19,15-29,10,0,5,0,5-5,5-4.5,4.5-9.5,4.5-19,9.5v9.5c-19.5,14.5-34.5,39.5-49,63.5C330-243,321-223,315.5-209c5.5,14.5,0,29.5,0,48.5,5.5,0,5.5,10,0,14.5,5.5,14,9.5,29,14.5,48.5C339.5-88,344.5-73,349.5-58c10,0,10,9,15,9v5.5c10,4.5,10,19,19.5,19,5,5.5,0,10,5,14.5L393.5.5c9.5,0,14.5,0,20-10.5C423-5,423,.5,437,.5l5,4c15,0,28.5,0,44,5,24-9,58-5,77-19.5h10c20-23.5,44.5-39,53.5-67.5,5-5.5,0-15,10.5-15,4-24.5,9-48.5,4-78h5C641-175.5,646-194.5,646-199.5ZM344.5-136v-10c0,5,5,0,5-4.5C355-146,349.5-141,344.5-136ZM423-326.5c4.5,5.5-5,11,0,11-5,4-5-5.5-5-5.5C418-326.5,423-321,423-326.5ZM427.5-121c-4.5-11-19.5-5.5-24.5,4,0-9.5,10.5-24,15-29,0,5,9.5,14,14,25C427.5-121,427.5-126.5,427.5-121Zm24,38c5.5,0,0-5,0-9.5-5-5-9.5,0-9.5-10.5,9.5,0,15,10.5,19,10.5C457-88,457-83,451.5-83ZM481-83c-5,0,0,0-5-5,5-4.5,5,0,10,0C486-83,481-83,481-83Zm19.5-5h0ZM466-112c-5-5-5-9-9-14.5,0-5.5-5.5-9.5-5.5-9.5,0-5-14.5-14.5-9.5-30-10-9.5,4.5-24,0-33.5,4.5-19,15-38,28.5-43.5,0-4.5-4.5,0-4.5,0,10-9.5,29.5-9.5,44-4.5v4.5c5.5,0,9.5,5.5,14.5,9.5,0,10.5,9,15,9,24.5v4.5s5.5,5,5.5,10v24C533.5-132,510-97.5,466-112Zm82.5-209c-4.5,0-9.5,5.5-15,5.5-4.5-5.5,10.5-15,0-15,10.5,0,20,4,29.5,15C559-315.5,553.5-321,548.5-321Zm14.5,5.5s5,0,5,4C568-311.5,563-311.5,563-315.5Zm5,140c-5-9.5,5-14.5,5-14.5v-4.5s5.5-5,0-10c5.5,0,5.5,0,10-4.5,0-14,29-38.5,0-48.5,4.5-10.5,10-14.5,14.5-24,5.5,4.5,10,13.5,10,19.5H612v4.5A188.511,188.511,0,0,1,597.5-223C587.5-209,578.5-190,568-175.5Zm15,112c0,5.5-4.5,10-10,14.5,5.5-9,14.5-19.5,10-24,14.5-10,14.5-24.5,24.5-30,0-9,4.5-9,4.5-14,5.5,0,0,5,0,9.5C603-97.5,603-73,583-63.5ZM981-159c-2.5-4-7-8-7.5-12-.5-6,6-12,3-17.5-3-6-11-4.5-16.5-7-2.5.5-1.5,4-3,5-5-5.5-12.5-9-18-14,8-11,15-26.5,29.5-33.5,1.5-9,7-15.5,11-21-1-4-1.5-3-2-7,8.5-8-2-25,.5-33-7.5-5-10-12.5-11.5-19.5-6.5-6.5-14-12-16-20.5-12.5-3-9-12-24.5-13-2.5-9-17-5.5-22-12-8.5,1.5-24.5-2.5-35-8-15.5,2.5-29.5-3-43.5-.5-1-4.5-3.5-.5-7.5-3-2,1.5,1.5,2.5-1,3.5-5-4.5-9.5,0-15.5,0-7.5,0-16.5-4.5-25.5-5-11.5,0-41,7-50.5,4-1,1.5-1,4-3,4-18-.5-23,10.5-43.5,7-1,4.5-6.5,5-7,10.5,1.5,2,4-1.5,6,1-2.5,2.5,1,4.5.5,8-1.5.5-3,0-3.5,1,5,2,1,2.5,1.5,5.5,1,13.5,3.5,32.5,1.5,52.5-13,9.5,1,17,3.5,24.5,5,15.5-1.5,39-1.5,51.5,2,38-5,81-5.5,118,1.5,7,1,19.5.5,30-.5,9.5-.5,21-3,30,3,3.5,8,6,7.5,10,2,2,5.5,1,6.5,2,2,1-.5,7.5,2,8,11.5,9,28.5,13,45.5,14,6.5-4,19-1.5,26-3.5C776,3.5,798,5.5,817,4.5c25-12.5,61-19,89.5-18C919.5-25,947-27,947.5-48c7.5-2,11-8,14-14.5,3,2.5,2.5-2,6.5-1,2.5-5,.5-9.5,6-12.5,1-14,19-26,14-42.5C992-129,985-153,981-159ZM703-114v-1.5l.5-.5c2,0,2.5,1,3.5,1-.5,2.5-1,5-4,5.5C702-112,702.5-112,703-114Zm2.5,31a31.068,31.068,0,0,1-1.5-5c-1-5-1-11.5-1-16.5v-2a96.8,96.8,0,0,0,10.5,10C710.5-92.5,708.5-87,705.5-83Zm4-106c-1-.5-1.5-2-2-3-.5-2,0-4,2-4.5H711c1-3.5,3-7,4.5-10.5,4-6.5,8-12.5,8.5-18.5a10.929,10.929,0,0,0,2.5-1.5c1.5-1.5,3-3,3.5-4.5C727.5-216,715.5-205,709.5-189ZM707-277c-.5-.5-.5-1.5-1-2-1.5-7,4-16,9-28,7-16,13.5-26,18-42.5,3.5,1.5,8-2,9,0v1C730-325.5,714.5-301,707-277Zm196-63.5c.5,1.5,0,2,0,3-.5,1.5-2,2-4,2.5.5-1.5-.5-2-1-3.5v-.5A8.447,8.447,0,0,1,903-340.5ZM863-348l-.5.5c-2.5,8-15,6.5-17-1v-.5C852.5-350.5,855.5-348,863-348Zm-1,86.5c-10.5,18.5-10.5,18.5-24,28h-1.5c-9.5.5-14.5-1-20.5,1h0c-1-2-8.5-2-12.5-2.5v.5c-.5,2.5-1,2.5-2,1.5-2.5-2-5.5-9.5-3.5-7.5,0-4-1-22.5.5-27.5,6.5-1,15-2,23.5-2.5C836.5-270.5,852-268.5,862-261.5ZM820.5-145c3-2.5,2.5-3.5,4.5-5.5,0-.5,0-.5.5-1,6,2,11.5,5,18.5,6-3,1.5-6,1.5-9.5,1.5C830-144,825-145,820.5-145Zm20-30.5v-.5a3.117,3.117,0,0,1,1.5-2.5c.5-.5,1.5-1,1.5-2C846.5-179,843-175,840.5-175.5ZM813.5-342v-.5c-1.5-2-2-5-3.5-7,3.5-2.5,7.5,1,11-1h.5C817-347.5,819.5-344,813.5-342Zm-10,323v-.5c-.5-3,1-4.5,2-6a2.6,2.6,0,0,0,1-2c4,.5,4,5,8,5C812.5-19.5,808.5-18.5,803.5-19Zm-16-77.5c1.5-5,3.5-22,2.5-27,13-4.5,45-6,59-2,1.5,2,4,22.5,8.5,24-6.5,3-21.5,9-31,9C824.5-87,795.5-95,787.5-96.5ZM856-33c-2.5,1.5-6,3.5-9.5,2.5a3.006,3.006,0,0,1-2-.5c-1-4,2.5-12,6.5-15,3-2,5.5-1,7,5.5C853-42.5,854-34,856-33Zm2-181.5c-2-.5-3.5-1.5-3.5-3.5,3-1.5,6-2.5,8-5,.5-.5,1-.5,1-1,4.5,2-3.5,6.5-4,10A1.837,1.837,0,0,1,858-214.5ZM868-122c0-1,.5-1.5,1-1.5a2.483,2.483,0,0,0,1-3C874.5-126.5,871.5-120.5,868-122Zm28-218.5c-1.5,1-5.5,0-6-.5a2.6,2.6,0,0,0-1-2c-2-2.5,5,2,8,1.5A1.075,1.075,0,0,1,896-340.5ZM910.5-194a4.508,4.508,0,0,1-2.5.5c-2.5.5-3.5-.5-7-1.5,2-2,3-5,5.5-6.5a8.447,8.447,0,0,1,5-1.5C910-199,911.5-198.5,910.5-194Zm7.5-34c2-4.5,7.5-5.5,7-12,0,0,.5-.5,0-.5,1-1,2.5-1,4-1l.5-.5c1,0,1.5-1,1-2.5,3.5,3-2.5,10.5-8.5,14.5A14.97,14.97,0,0,1,918-228Zm19.5,52.5a44.085,44.085,0,0,1-11.5,0c-2.5-5,1-6,2-8.5a3.188,3.188,0,0,0,0-3c5,3,11.5,4.5,12.5,11.5Zm-134-62a2.469,2.469,0,0,1-1.5.5c-.5.5-1,1-.5,2h2Zm511,78.5c-2.5-4-7-8-7.5-12-.5-6,6-12,3-17.5-3-6-11-4.5-16.5-7-2.5.5-1.5,4-3,5-5-5.5-12.5-9-18-14,8-11,15-26.5,29.5-33.5,1.5-9,7-15.5,11-21-1-4-1.5-3-2-7,8.5-8-2-25,.5-33-7.5-5-10-12.5-11.5-19.5-6.5-6.5-14-12-16-20.5-12.5-3-9-12-24.5-13-2.5-9-17-5.5-22-12-8.5,1.5-24.5-2.5-35-8-15.5,2.5-29.5-3-43.5-.5-1-4.5-3.5-.5-7.5-3-2,1.5,1.5,2.5-1,3.5-5-4.5-9.5,0-15.5,0-7.5,0-16.5-4.5-25.5-5-11.5,0-41,7-50.5,4-1,1.5-1,4-3,4-18-.5-23,10.5-43.5,7-1,4.5-6.5,5-7,10.5,1.5,2,4-1.5,6,1-2.5,2.5,1,4.5.5,8-1.5.5-3,0-3.5,1,5,2,1,2.5,1.5,5.5,1,13.5,3.5,32.5,1.5,52.5-13,9.5,1,17,3.5,24.5,5,15.5-1.5,39-1.5,51.5,2,38-5,81-5.5,118,1.5,7,1,19.5.5,30-.5,9.5-.5,21-3,30,3,3.5,8,6,7.5,10,2,2,5.5,1,6.5,2,2,1-.5,7.5,2,8,11.5,9,28.5,13,45.5,14,6.5-4,19-1.5,26-3.5,16.5,2.5,38.5,4.5,57.5,3.5,25-12.5,61-19,89.5-18C1253-25,1280.5-27,1281-48c7.5-2,11-8,14-14.5,3,2.5,2.5-2,6.5-1,2.5-5,.5-9.5,6-12.5,1-14,19-26,14-42.5C1325.5-129,1318.5-153,1314.5-159Zm-278,45v-1.5l.5-.5c2,0,2.5,1,3.5,1-.5,2.5-1,5-4,5.5C1035.5-112,1036-112,1036.5-114Zm2.5,31a31.068,31.068,0,0,1-1.5-5c-1-5-1-11.5-1-16.5v-2a96.8,96.8,0,0,0,10.5,10C1044-92.5,1042-87,1039-83Zm4-106c-1-.5-1.5-2-2-3-.5-2,0-4,2-4.5h1.5c1-3.5,3-7,4.5-10.5,4-6.5,8-12.5,8.5-18.5a10.929,10.929,0,0,0,2.5-1.5c1.5-1.5,3-3,3.5-4.5C1061-216,1049-205,1043-189Zm-2.5-88c-.5-.5-.5-1.5-1-2-1.5-7,4-16,9-28,7-16,13.5-26,18-42.5,3.5,1.5,8-2,9,0v1C1063.5-325.5,1048-301,1040.5-277Zm196-63.5c.5,1.5,0,2,0,3-.5,1.5-2,2-4,2.5.5-1.5-.5-2-1-3.5v-.5A8.447,8.447,0,0,1,1236.5-340.5Zm-40-7.5-.5.5c-2.5,8-15,6.5-17-1v-.5C1186-350.5,1189-348,1196.5-348Zm-1,86.5c-10.5,18.5-10.5,18.5-24,28H1170c-9.5.5-14.5-1-20.5,1h0c-1-2-8.5-2-12.5-2.5v.5c-.5,2.5-1,2.5-2,1.5-2.5-2-5.5-9.5-3.5-7.5,0-4-1-22.5.5-27.5,6.5-1,15-2,23.5-2.5C1170-270.5,1185.5-268.5,1195.5-261.5ZM1154-145c3-2.5,2.5-3.5,4.5-5.5,0-.5,0-.5.5-1,6,2,11.5,5,18.5,6-3,1.5-6,1.5-9.5,1.5C1163.5-144,1158.5-145,1154-145Zm20-30.5v-.5a3.117,3.117,0,0,1,1.5-2.5c.5-.5,1.5-1,1.5-2C1180-179,1176.5-175,1174-175.5ZM1147-342v-.5c-1.5-2-2-5-3.5-7,3.5-2.5,7.5,1,11-1h.5C1150.5-347.5,1153-344,1147-342ZM1137-19v-.5c-.5-3,1-4.5,2-6a2.6,2.6,0,0,0,1-2c4,.5,4,5,8,5C1146-19.5,1142-18.5,1137-19Zm-16-77.5c1.5-5,3.5-22,2.5-27,13-4.5,45-6,59-2,1.5,2,4,22.5,8.5,24-6.5,3-21.5,9-31,9C1158-87,1129-95,1121-96.5ZM1189.5-33c-2.5,1.5-6,3.5-9.5,2.5a3.006,3.006,0,0,1-2-.5c-1-4,2.5-12,6.5-15,3-2,5.5-1,7,5.5C1186.5-42.5,1187.5-34,1189.5-33Zm2-181.5c-2-.5-3.5-1.5-3.5-3.5,3-1.5,6-2.5,8-5,.5-.5,1-.5,1-1,4.5,2-3.5,6.5-4,10A1.837,1.837,0,0,1,1191.5-214.5Zm10,92.5c0-1,.5-1.5,1-1.5a2.483,2.483,0,0,0,1-3C1208-126.5,1205-120.5,1201.5-122Zm28-218.5c-1.5,1-5.5,0-6-.5a2.6,2.6,0,0,0-1-2c-2-2.5,5,2,8,1.5A1.075,1.075,0,0,1,1229.5-340.5ZM1244-194a4.508,4.508,0,0,1-2.5.5c-2.5.5-3.5-.5-7-1.5,2-2,3-5,5.5-6.5a8.447,8.447,0,0,1,5-1.5C1243.5-199,1245-198.5,1244-194Zm7.5-34c2-4.5,7.5-5.5,7-12,0,0,.5-.5,0-.5,1-1,2.5-1,4-1l.5-.5c1,0,1.5-1,1-2.5,3.5,3-2.5,10.5-8.5,14.5A14.97,14.97,0,0,1,1251.5-228Zm19.5,52.5a44.085,44.085,0,0,1-11.5,0c-2.5-5,1-6,2-8.5a3.188,3.188,0,0,0,0-3c5,3,11.5,4.5,12.5,11.5Zm-134-62a2.469,2.469,0,0,1-1.5.5c-.5.5-1,1-.5,2h2Zm511.5-88c-8-4-5-9-10-14.5,7.5-4,5.5-11.5,7-17.5-10.5-4.5-25.5-10-38-12-17,7-43.5,10.5-60.5,4-4,.5-11.5,2-14.5,1,1,4-4,2-4,5-.5,2,3.5,1.5,3,6C1514-322,1496.5-294,1475-268c-8.5-20.5-26-32-29.5-57.5-6-1-10-7.5-8.5-12.5-2.5,0-4.5-1-5-3,1.5-1.5-2.5-7.5,0-10-5.5-.5-6.5-5-10.5-7.5-2-17-20.5-9-30.5-13.5-9.5,1.5-22.5,4-30,3.5-11-1.5-24-2.5-28.5,2,.5,4.5,4,6.5,4,12-2.5-2-7,0-10.5,0,1,4,2,3-2,2,5,7.5,0,12,7.5,17.5-2,.5-2.5,2-2,4.5,4-.5,7.5,4,10,7,6,7.5,11.5,19,14.5,28.5,4.5,3.5,6,10.5,8,16.5,1.5.5,3,0,3,1,.5,3.5,4,6.5,1.5,9.5,4.5,2.5,8,10,7,15.5,4,2,8.5,8.5,6,14,12.5,12.5,19.5,29,27,44.5,3.5,5.5,11.5,15.5,15,24.5,4,10,4,16,17.5,17.5-2,14,0,28,0,41,.5,9.5-2.5,19-3,27.5,0,10,.5,22.5,2,31h-3c2,3.5,2,2.5,0,6,4.5,2.5,1,7,4,10.5-7,10-7,17.5-17,24.5-.5,5.5,1,6,0,10,6,4.5,11.5-.5,20.5,1.5.5-5.5,9-2,11,0,8-4.5,7.5.5,14-4a.49.49,0,0,1,.5-.5.49.49,0,0,1-.5.5c.5,1,6,4.5,5.5,2.5,1-1,11.5-2,13.5-1.5,13,5,13.5,13,24.5,1,4,7.5,17.5,10.5,23.5,2.5-3.5-2,2-9,6.5-9.5,1,1,0,4,3,3.5,11,1.5,16.5-17,6-24-2-9,1.5-22,1-35.5,0-7.5-6-18-1-20.5-6-21.5,8.5-54-3-69.5-2.5-1.5-3.5,4-4,1,1-4.5,2-7.5,1-11.5,10-12.5,12.5-33,25.5-43-.5-3,1-4,1-6,11-10.5,20-23,25.5-39,12-16.5,23.5-35.5,36-53.5a4.227,4.227,0,0,1,3,1c.5-2-1-2.5-1-4C1641.5-312.5,1646-318,1648.5-325.5Zm-267-6c-3-3.5,1.5-8,2-10.5C1387.5-341,1382.5-335,1381.5-331.5ZM1386-343c-1-1.5-3.5-1.5-3.5-4,1.5,0,2-.5,2-1C1388-347,1385.5-346,1386-343Zm22.5,15.5a12.322,12.322,0,0,1,5-8.5c4,2.5,4.5,6.5,9,10.5C1418.5-323,1413.5-328,1408.5-327.5Zm14,5c3,.5,2.5,4,4.5,5C1425.5-315,1423-320,1422.5-322.5Zm29,151c-.5-4.5,3.5-4.5,4-8.5C1459-180,1455-171,1451.5-171.5Zm6-11.5c2-2,1.5-6,5.5-6C1461.5-186.5,1461-183,1457.5-183ZM1463-68c-1.5-1-2-3.5-2.5-6C1463-73.5,1465-70,1463-68Zm1-33c-3.5-1.5,0-9.5,0-12,3-1,2.5,1.5,4,2C1469.5-105,1463-106.5,1464-101Zm3-96.5c2.5-4.5,3-11.5,9-13C1472.5-206.5,1471.5-200,1467-197.5Zm10-14c-2.5-3,3.5-7.5,0-11.5,2-1,6-3.5,8.5-1A22.559,22.559,0,0,1,1477-211.5ZM1488.5-31c-1-6,4-5.5,5-9C1495.5-37.5,1492-31.5,1488.5-31Zm9-10c-4,0-2.5-3-2-5.5h3C1499-44,1497-44,1497.5-41ZM1510-258c-3.5-1.5-4.5,4.5-3,4.5-3,.5-3,4.5-7.5,4,.5-6.5,6-7.5,6.5-13.5h5A5.465,5.465,0,0,0,1510-258Zm19.5,222c-4.5-.5-3.5,3-7,1,0-3.5,3.5-4,3-8.5h3c1,3,2,5.5,2,9.5C1529.5-34,1529.5-35.5,1529.5-36ZM1517-73c1.5-7,7-9,9.5-14.5,3,4.5,3,12.5,3,19.5C1526.5-70.5,1520.5-70.5,1517-73Zm4.5-206.5a1.831,1.831,0,0,0,2,2c-6.5,2-9,7.5-12.5,12.5-2.5-2,0-7,3-6,9-19,21.5-35,31-50.5C1543.5-305,1529-292.5,1521.5-279.5Zm25-43c3-7,8-12,11.5-18.5C1560.5-331.5,1551.5-328.5,1546.5-322.5ZM1619-335c-4-2-4,1.5-7.5,2,1.5-4,4.5-7,5-12,5,.5,7,0,9.5,4C1621.5-341,1619.5-338.5,1619-335Z" transform="translate(-21.5 394)" fill="#674129"/></svg>