<svg xmlns="http://www.w3.org/2000/svg" width="892.376" height="150.001" viewBox="0 0 892.376 150.001"><g transform="translate(-1373.812 -240)"><path d="M1492.864,381.321h-38.073c-1.465,0-2.2-.586-2.2-2.05v-8.348a1.793,1.793,0,0,1,2.05-2.05h28.848V325.382h-50.081v52.571c0,2.342-1.171,3.368-3.368,3.368h-52.571c-2.2,0-3.221-1.026-3.221-3.222V316.6c0-2.2.878-3.368,3.221-3.368h42.174V281.011h-43.638c-1.464,0-2.2-.731-2.2-2.048v-8.934c0-1.465.585-2.05,2.049-2.05h43.785V257c0-1.464.586-2.2,2.2-2.2h9.079c1.319,0,2.051.733,2.051,2.2v10.983h32.947a1.792,1.792,0,0,1,2.051,2.05v8.934a1.852,1.852,0,0,1-2.051,2.048h-32.947v31.777h59.6c2.783,0,3.807,1.465,3.807,3.661v61.5C1496.378,380.3,1495.207,381.321,1492.864,381.321Zm-71.754-55.353h-34.7V369.02h34.7Zm73.072-26.359h-8.347a1.792,1.792,0,0,1-2.05-2.05V257c0-1.464.732-2.2,2.05-2.2h8.347c1.464,0,2.2.733,2.2,2.343v40.417C1496.378,299.023,1495.646,299.609,1494.182,299.609Z" fill="#bb131b"/><path d="M1524.94,381.028a1.929,1.929,0,0,1-2.2,1.9h-4.686c-1.318,0-2.343-.44-2.2-1.611l2.635-41.881c.146-1.318.732-2.05,2.051-2.05h4.832a1.661,1.661,0,0,1,1.9,1.757v.293Zm43.344-51.838h-19.622v53.448a2,2,0,0,1-2.2,2.2h-6.59c-1.464,0-2.05-.585-2.05-2.2V329.19h-18.744c-2.2,0-3.221-1.026-3.221-3.369v-6.443a3.993,3.993,0,0,1,.585-2.343l19.915-24.307h-17.279c-2.2,0-3.221-1.026-3.221-3.077V281.6a3.829,3.829,0,0,1,.732-2.489l20.208-24.6a4.011,4.011,0,0,1,2.636-1.172h8.932c.879,0,1.318.146,1.318.586,0,.293-.293.586-.586,1.025l-22.112,27.237h18.159l8.493-10.689a4.159,4.159,0,0,1,2.489-1.319h9.08c.878,0,1.317.294,1.317.732a2.872,2.872,0,0,1-.585,1.172l-37.2,45.835H1559.2l-3.221-15.816c0-1.024.586-1.61,1.757-1.61h5.711c1.172,0,1.758.732,1.9,1.9l4.54,25.04v.44C1569.9,328.75,1569.456,329.19,1568.284,329.19Zm-1.9,53.742h-4.393c-1.318,0-2.2-.586-2.2-1.9l-1.318-41.588a1.793,1.793,0,0,1,2.051-2.05h4.393a1.792,1.792,0,0,1,2.05,2.05l1.464,41.588C1568.431,382.346,1567.845,382.932,1566.381,382.932Zm80.686-89.18a1.945,1.945,0,0,1-1.025-.44l-34.851-29.579-35.145,29.579a1.938,1.938,0,0,1-1.025.44c-.439,0-.586-.44-.586-1.172V280.865a3.127,3.127,0,0,1,1.172-2.489l29.14-24.015a3.9,3.9,0,0,1,2.636-1.026h7.761a4.152,4.152,0,0,1,2.489,1.026l28.849,24.015a3.262,3.262,0,0,1,1.317,2.489v11.422C1647.8,293.312,1647.507,293.752,1647.067,293.752Zm-1.611,43.2h-41l-15.229,34.12h44.37l-5.125-20.5c0-.293-.146-.439-.146-.586a1.579,1.579,0,0,1,1.757-1.611h8.347c1.171,0,1.757.586,2.049,1.9l6.444,30.313v.439c0,1.172-.439,1.61-1.758,1.61h-65.31c-2.2,0-3.368-1.024-3.368-3.221v-7.175a5.872,5.872,0,0,1,.439-2.2l14.79-33.1h-14.351c-1.464,0-2.2-.585-2.2-2.049v-7.469a1.939,1.939,0,0,1,2.2-2.2h68.24a1.965,1.965,0,0,1,2.05,2.2V334.9C1647.653,336.365,1646.921,336.95,1645.456,336.95Zm-8.639-28.994h-51.4c-1.464,0-2.2-.585-2.2-2.2v-7.174c0-1.318.586-2.051,2.2-2.051h51.545a2.037,2.037,0,0,1,2.05,2.2v7.028C1639.013,307.371,1638.281,307.956,1636.817,307.956Z" fill="#00527e"/><path d="M1754.7,381.321h-38.513c-1.464,0-2.2-.586-2.2-2.05v-8.786c0-1.465.732-2.2,2.05-2.2h28.848V281.452h-56.818v97.673c0,1.464-.732,2.2-2.049,2.2h-8.933a1.941,1.941,0,0,1-2.2-2.2V281.452h-11.568c-1.465,0-2.2-.587-2.2-2.051v-8.786a1.793,1.793,0,0,1,2.05-2.051H1674.9V257c0-1.318.586-2.05,2.2-2.05h8.933c1.317,0,2.049.732,2.049,2.2v11.422H1754.7a3.018,3.018,0,0,1,3.368,3.369v106.02C1758.072,380.3,1756.9,381.321,1754.7,381.321Zm34.266-26.213h-8.2c-1.465,0-2.051-.439-2.051-2.049V257.142a1.792,1.792,0,0,1,2.051-2.049h8.2a1.964,1.964,0,0,1,2.05,2.2v95.77A1.792,1.792,0,0,1,1788.97,355.108Z" fill="#668056"/><path d="M1936.73,323.332h-27.237v21.819a1.853,1.853,0,0,1-2.05,2.051h-9.519c-1.317,0-2.05-.586-2.05-1.9V323.332h-83.029a1.792,1.792,0,0,1-2.05-2.05v-8.494a1.853,1.853,0,0,1,2.05-2.05h83.029V280.865h-83.029a1.792,1.792,0,0,1-2.05-2.05v-8.932a1.852,1.852,0,0,1,2.05-2.05h83.029V257.142a1.853,1.853,0,0,1,2.05-2.049h9.519a1.852,1.852,0,0,1,2.05,2.049v10.691h27.237a1.792,1.792,0,0,1,2.05,2.05v8.932a1.792,1.792,0,0,1-2.05,2.05h-27.237v29.873h27.237a1.792,1.792,0,0,1,2.05,2.05v8.494A1.792,1.792,0,0,1,1936.73,323.332Zm-1.171,57.989H1821.338c-2.343,0-3.514-.879-3.514-3.808v-34.12c0-1.464.585-2.2,2.05-2.2h8.933c1.464,0,2.049.732,2.049,2.344v24.893H1935.7c1.318,0,2.05.733,2.05,2.2v8.494A1.941,1.941,0,0,1,1935.559,381.321Z" fill="#e69a0a"/><path d="M2092.11,384.4h-11.568a2.929,2.929,0,0,1-2.489-1.172l-57.7-83.907a1.948,1.948,0,0,1-.44-1.026c0-.586.44-.878,1.465-.878H2032.8a3.141,3.141,0,0,1,2.343,1.464l57.842,83.908a1.612,1.612,0,0,1,.439.879C2093.428,384.1,2092.989,384.4,2092.11,384.4Z" fill="#5d8da3"/><path d="M2151.569,268.564l-18.743,18.452,12.886,32.508a6.843,6.843,0,0,1,.439,2.49v57.7c0,2.49-1.171,3.514-3.368,3.514h-28.408c-1.465,0-2.2-.586-2.2-2.2v-7.176a1.921,1.921,0,0,1,2.05-2.05h20.208V334.021l-25.919,25.334c-.439.293-.732.586-1.025.586s-.439-.44-.439-1.172V348.08a3.864,3.864,0,0,1,1.025-2.783l25.187-24.747L2123.6,296.1l-15.083,14.789c-.439.44-.732.586-1.025.586s-.439-.438-.439-1.171V298.731a3.525,3.525,0,0,1,1.025-2.636l11.275-10.983-11.715-29.434a1.593,1.593,0,0,1-.146-.732c0-.732.439-1.025,1.611-1.025h8.933c1.025,0,1.757.293,2.049,1.319l8.348,20.94,22.7-22.551c.439-.44.732-.732,1.025-.732.439,0,.586.438.586,1.317v11.715A3.427,3.427,0,0,1,2151.569,268.564Zm79.955,62.529h-59.16v39.684l29.14-3.514a1.733,1.733,0,0,1,1.9,1.757v7.761a2.2,2.2,0,0,1-2.2,2.344l-46.566,5.125c-1.025,0-1.465-.586-1.465-1.9v-7.468a1.988,1.988,0,0,1,1.758-2.2l5.271-.586V264.026c0-2.2,1.025-3.369,3.222-3.369h27.676v-5.125c0-1.318.586-2.2,2.05-2.2h8.054a2.076,2.076,0,0,1,2.2,2.2v5.125h28.262c2.2,0,3.222,1.172,3.222,3.369v63.552C2234.892,330.068,2233.867,331.093,2231.524,331.093Zm-8.787-59.6h-50.373v18.89h50.373Zm0,29.433h-50.373v19.329h50.373Z" fill="#423964"/><path d="M2207.167,338.816c.432-.173.812.322,1.007.684a4.18,4.18,0,0,0,1.387,1.177c.277.085-.063-2.294-.034-2.891a1.959,1.959,0,0,1,.6-1.487c.384-.263.947-.623,1.294-.518s.353,1.092.353,1.092l.366.794s.49,1.134.711,1.657,1.227,1.963,1.963,2.034a3.873,3.873,0,0,1,1.743.755c.445.286.981,2.269.981,2.269a10.825,10.825,0,0,0,1.977,1.736c.487.148,1.264.838.859,1.17a3.072,3.072,0,0,1-2.371.572,3.718,3.718,0,0,0,.445,1.327s1.048,1.393,1.4,1.5l-.4-.085a9.213,9.213,0,0,0,.883,1.016l-.217-.072a10.267,10.267,0,0,0,1.039,1.186l-.218-.037a21.159,21.159,0,0,0,2.01,1.549l-.17.084a8.606,8.606,0,0,0,1.222.411,31.107,31.107,0,0,1,4.137.436c.774.314,3.556,1.186,4.064,1.283a47.182,47.182,0,0,0,5.3.314c1.379-.049,5.468-1.186,8.976.46s5.007,3.2,5.77,4.839a26.212,26.212,0,0,0,3.884,4.935,1.994,1.994,0,0,0,1.016.581l-.545.109a8.694,8.694,0,0,1,2.759,1.741,15.139,15.139,0,0,0,2.618,2.1l-.6-.141a4.539,4.539,0,0,1,.986,1.281,10.5,10.5,0,0,0,1.988,2.126l-.855-.208a12.748,12.748,0,0,1,2.3,2.6l-.524-.205.925,1.494a9.366,9.366,0,0,1-3.246-1.648l.209.424a8.449,8.449,0,0,1-1.719-1.583l.31.8a15.871,15.871,0,0,0-2.145-1.375c-1.057-.341-1.656-1.42-1.91-1.638l.181.508a11.433,11.433,0,0,1-1.342-.616c-.907-.545-1.851-1.052-1.851-1.052l-.072.507-1.017-.725.363.87a10.967,10.967,0,0,1-2.033-1.6l.436.581a1.847,1.847,0,0,0-1.234-.653c-.8-.073-2.54-1.6-2.54-1.6.653,1.307-.29,4.137-.145,4.865s1.886,2.612,3.41,3.773,3.485.726,3.2,2.612.726,5.226-.363,7.187-3.775,1.96-4.428,1.815-.653-.654-.653-.654a1.022,1.022,0,0,1,.363-1.088c.072-.435.725-.581,1.306-.581s1.089-.437,1.525-1.163-.073-2.974-.218-3.629-2.323-1.524-3.049-2.177c-.205-.184-.6-.53-1.1-.94a13.593,13.593,0,0,0,1.176,2.029c.435.58,1.161,1.016.943,1.525s-1.669,4.646-2.4,5.516a4.957,4.957,0,0,1-2.394.436c-.871,0-.8-.073-1.162-.363s.146-.653.146-.653c-.073-.581.29-.581.8-.8s2.467-1.258,2.467-2.684c0-.871-1.107-2.922-1.959-4.429-.342-.6-.9-1.814-1.476-3.115a3.89,3.89,0,0,0-.7-.223c-1.815-.363-4.573-5.153-5.444-5.516s-6.024,1.233-9.145,1.378-7.476-1.523-7.476-1.523a20.175,20.175,0,0,1-.145,4.5,6.813,6.813,0,0,0,.072,3.628c.291,1.307.871,3.848,1.016,4.211s-.435,2.539-.435,3.192-.29,2.252-1.814,2.252c0,0-1.669.435-1.961-.145,0,0-1.233-.436-.87-1.307a.678.678,0,0,1,.653-.219s.654-.218,1.017-.363.833-1.85.833-1.85a9.1,9.1,0,0,0-.616-3.774c-.255-.545-1.633-4.356-2.359-5.517s-.944-3.81-1.416-4.608a12.873,12.873,0,0,1-.8-3.122,12.162,12.162,0,0,1-2.1-5.008,15.863,15.863,0,0,0-1.161-3.411l-.218.362a10.782,10.782,0,0,1-.8-3.265c-.145-1.162-.4-3.013-.4-3.013l-.145.472c-.218-.689-.653-2.831-.762-3.375s-.29-1.633-.29-1.633l-.145.29a16.643,16.643,0,0,0-.653-3.194,9.275,9.275,0,0,1-.481-1.7,11.385,11.385,0,0,0-1.042-3.575A1.926,1.926,0,0,1,2207.167,338.816Z" fill="#423964"/><path d="M1996.669,347.681l-16.964-9.053-.307.008a20.247,20.247,0,0,0-17.406,10.688c-3.257,6.1-3.934,12.4-4.589,18.493a68.507,68.507,0,0,1-2.183,12.692,21.475,21.475,0,0,1-1.9,4.817l-.872,1.275,1.463.493c6.81,2.3,15.54,1.65,23.953-1.777,8.837-3.6,15.863-9.625,19.781-16.967a20.241,20.241,0,0,0-.813-20.409Zm-3.47,18.3a27.382,27.382,0,0,1-3.415,4.946c-.22.19-.444.4-.677.631-2.579,2.6-6.425,2.1-4.726-2.742s-2.475-5.808-5.346-2.41c-3.6,4.266-5.886,1.5-5.391-.668s2.845-5.335.356-6.883c-1.5-.934-3.055.895-5.588,3.428-1.45,1.45-5.2,1.5-4.389-4.234a28.239,28.239,0,0,1,2.416-6.348,15.3,15.3,0,0,1,12.111-7.969l14.527,7.751A15.3,15.3,0,0,1,1993.2,365.977Z" fill="#5d8da3"/><path d="M1983.078,322.2a9.95,9.95,0,0,0,3.837,13.918l7.825,4.175a9.952,9.952,0,0,0,13.7-4.559l5.243-11.2-24.222-12.926Z" fill="#5d8da3"/><path d="M2042.65,241.164l-.059-.03a9.619,9.619,0,0,0-12.768,3.522l-38.092,63.188,23.816,12.708,31.286-66.821A9.621,9.621,0,0,0,2042.65,241.164Z" fill="#5d8da3"/></g></svg>