<svg xmlns="http://www.w3.org/2000/svg" width="147.235" height="253.254" viewBox="0 0 147.235 253.254">
  <g id="グループ_28" data-name="グループ 28" transform="translate(-3823.154 -176.336)">
    <path fill="#FFECC3" id="パス_3365" data-name="パス 3365" d="M3896.92,319.479h0c-2.134,0-5.165-.13-8.418-4.27-2.607-3.315-.475-7.35,2.847-7.35h5.572V210.535h-15.738s-7.321-10.457-13.723-19.715q-.535-.8-1.071-1.532c-3.929-5.662-7.322-10.661-8.264-12.116-.74-1.2-2.3-1.1-4.082.229-3.954,2.857-8.978,11.58-8.647,24.767.026,1.226.051,2.374.127,3.495.791,16.224,3.8,20.56,3.8,20.56s-6.5,8.724-12.5,23.619a135.592,135.592,0,0,0-7.295,24.715c-.715,3.65-1.3,7.476-1.735,11.454-.026.179-.026.384-.051.563l.358-.028.2-.024h.306l14.336-.892-1.914,15.456,15.1-2.347,2.551,11.045,11.056-5.829c3.535,9.483,8.182,21.522,10.127,24.688,3.331,5.435,10.664,3.884,16,.78.4-.232.724-.441,1.019-.64l.037.024ZM3858.2,220.81c-3.905-4.511-5.545-15.508-4.222-20.657.829-3.246,4.014-4.588,6.007-2.3s9,15.115,9,15.115S3859.184,220.32,3858.2,220.81Zm11.937,55.825s-4.251-8.928-5.1-12.328c10.628,0,14.88,5.951,16.58,7.652l2.55,5.528Z" />
    <path fill="#FFECC3" id="パス_3366" data-name="パス 3366" d="M3965.257,344.97c-4.772-6.723-11.951-10.4-18.657-12.815-3.367-1.206-6.64-2.089-9.5-2.839s-5.32-1.384-6.908-1.986l0,0c-.378-.141-.762-.311-1.142-.461V320.21a13.035,13.035,0,0,0-.992-5.768,5.718,5.718,0,0,0-2.211-2.411,6.41,6.41,0,0,0-3.3-.828h-1.08v-1.8c3.578-3.884,9.612-10.062,11.856-20.024a12.976,12.976,0,0,0,2.2-1.212,14.479,14.479,0,0,0,4.509-5.364,50.291,50.291,0,0,0,3.6-9.681,20.622,20.622,0,0,0,.892-5.634,10.234,10.234,0,0,0-1.108-4.89,7.729,7.729,0,0,0-3.281-3.239l-.25-8.378c6.186-1.231,10.134-4.432,10.848-11.268,1.692-16.235-16.852-31.659-42.2-35.868a5.328,5.328,0,0,0,.206-1,5.154,5.154,0,0,0-4.5-5.739,5.015,5.015,0,0,0-4.706,2.295v49.03c10.7,1.137,20.527,2.639,28.673,3.075a49.447,49.447,0,0,1,4.478,16.79l1.814-4.05,1.764-.384a3.5,3.5,0,0,1,1.489.462,2.227,2.227,0,0,1,.808.872,4.842,4.842,0,0,1,.458,2.3,15.3,15.3,0,0,1-.68,4.119c-1.517,5.348-2.878,8.457-4.125,10.182a7.31,7.31,0,0,1-1.837,1.861,9.355,9.355,0,0,1-2.322,1.134l-1.509.536-.277,1.578c-1.717,9.693-7.682,15.265-11.6,19.591l-.709.786V312.2h-16.429v4.5h23.016l.42.039.086.031.081.128a8.53,8.53,0,0,1,.416,3.306v10.306l1.642.722c1.031.456,2.067.873,3.073,1.248l.966-2.575-.966,2.578c2.755,1.016,6.359,1.816,10.353,2.933,5.976,1.65,12.7,3.984,17.722,8.056a22.261,22.261,0,0,1,6.131,7.523,25.418,25.418,0,0,1,2.425,11.4c0,.922-.05,1.895-.125,2.9l-.239.284a11.946,11.946,0,0,1-2.378,1.683c-4.056,2.342-12.065,5.22-22.816,7.407a201.1,201.1,0,0,1-39.807,3.781c-19.772,0-36.451-2.584-48.121-5.74a71.706,71.706,0,0,1-13.422-4.861,16.484,16.484,0,0,1-3.213-2.045,3.009,3.009,0,0,1-.481-.5c-.079-1.006-.126-1.984-.126-2.917a26.784,26.784,0,0,1,1.573-9.4h-5.8a33.328,33.328,0,0,0-1.277,9.4c0,1.169.05,2.372.155,3.617a4.917,4.917,0,0,0,.844,2.3,11.115,11.115,0,0,0,3.141,2.9,45.4,45.4,0,0,0,9.52,4.448c12.152,4.336,32.274,8.3,57.207,8.309,20.258,0,37.357-2.631,49.561-5.931a76.809,76.809,0,0,0,14.5-5.279,21.854,21.854,0,0,0,4.323-2.8,8.631,8.631,0,0,0,1.48-1.642,4.919,4.919,0,0,0,.848-2.3c.1-1.242.15-2.445.15-3.606A29.374,29.374,0,0,0,3965.257,344.97Z"/>
    <path fill="#FFECC3" id="パス_3367" data-name="パス 3367" d="M3915.033,255.409A12.252,12.252,0,0,0,3903,265.415h-6.08v4.506H3903a12.252,12.252,0,1,0,12.033-14.512Zm0,20.016a7.755,7.755,0,1,1,7.757-7.754A7.769,7.769,0,0,1,3915.033,275.425Z" />
    <g id="グループ_27" data-name="グループ 27">
      <path fill="#FFECC3" id="パス_3368" data-name="パス 3368" d="M3880.961,396.163a18.664,18.664,0,0,0,1.575,18.764c4.418,6.271,11.531,10.986,20.024,13.274,8.086,2.179,16.146,1.781,22.115-1.1l1.283-.618-.943-1.067a19.879,19.879,0,0,1-2.284-4.191,63.161,63.161,0,0,1-3.44-11.364c-1.291-5.5-2.626-11.182-6.3-16.4a18.667,18.667,0,0,0-17.138-7.8l-.281.028-14.491,10.209Zm3.838,2.81,12.41-8.742a14.113,14.113,0,0,1,11.985,5.915,26,26,0,0,1,2.931,5.533c1.392,5.156-2.043,5.534-3.534,4.372-2.6-2.029-4.237-3.526-5.5-2.5-2.1,1.7.41,4.328,1.108,6.256s-1.075,4.717-4.856,1.224c-3.013-2.783-6.722-1.427-4.617,2.812s-1.357,5.134-4.012,3.045c-.24-.186-.469-.351-.691-.5a25.253,25.253,0,0,1-3.686-4.137A14.109,14.109,0,0,1,3884.8,398.973Z" />
      <path fill="#FFECC3" id="パス_3369" data-name="パス 3369" d="M3890.621,371.051a9.173,9.173,0,0,1-1.93,13.168l-6.684,4.709a9.176,9.176,0,0,1-13.052-2.615l-6.068-9.65,20.69-14.576Z" />
      <path fill="#FFECC3" id="パス_3370" data-name="パス 3370" d="M3826.916,303.684l.05-.034a8.871,8.871,0,0,1,12.082,1.771l42.026,53.48-20.344,14.331-36.213-57.576A8.868,8.868,0,0,1,3826.916,303.684Z" />
    </g>
  </g>
</svg>
