<svg xmlns="http://www.w3.org/2000/svg" width="95.294" height="148.449" viewBox="0 0 95.294 148.449">
  <g id="グループ_34" data-name="グループ 34" transform="translate(-1952.449 -240)">
    <path fill="#FFECC3" id="パス_3382" data-name="パス 3382" d="M1996.669,347.681l-16.964-9.053-.307.008a20.247,20.247,0,0,0-17.406,10.688c-3.257,6.1-3.934,12.4-4.589,18.493a68.507,68.507,0,0,1-2.183,12.692,21.475,21.475,0,0,1-1.9,4.817l-.872,1.275,1.463.493c6.81,2.3,15.54,1.65,23.953-1.777,8.837-3.6,15.863-9.625,19.781-16.967a20.241,20.241,0,0,0-.813-20.409Zm-3.47,18.3a27.382,27.382,0,0,1-3.415,4.946c-.22.19-.444.4-.677.631-2.579,2.6-6.425,2.1-4.726-2.742s-2.475-5.808-5.346-2.41c-3.6,4.266-5.886,1.5-5.391-.668s2.845-5.335.356-6.883c-1.5-.934-3.055.895-5.588,3.428-1.45,1.45-5.2,1.5-4.389-4.234a28.239,28.239,0,0,1,2.416-6.348,15.3,15.3,0,0,1,12.111-7.969l14.527,7.751A15.3,15.3,0,0,1,1993.2,365.977Z"/>
    <path fill="#FFECC3" id="パス_3383" data-name="パス 3383" d="M1983.078,322.2a9.95,9.95,0,0,0,3.837,13.918l7.825,4.175a9.952,9.952,0,0,0,13.7-4.559l5.243-11.2-24.222-12.926Z"/>
    <path fill="#FFECC3" id="パス_3384" data-name="パス 3384" d="M2042.65,241.164l-.059-.03a9.619,9.619,0,0,0-12.768,3.522l-38.092,63.188,23.816,12.708,31.286-66.821A9.621,9.621,0,0,0,2042.65,241.164Z"/>
  </g>
</svg>
